<?xml version="1.0" standalone="no"?>
<!DOCTYPE svg PUBLIC "-//W3C//DTD SVG 20010904//EN"
 "http://www.w3.org/TR/2001/REC-SVG-20010904/DTD/svg10.dtd">
<svg version="1.0" xmlns="http://www.w3.org/2000/svg"
 width="372.000000pt" height="372.000000pt" viewBox="0 0 372.000000 372.000000"
 preserveAspectRatio="xMidYMid meet">
<metadata>
Created by potrace 1.14, written by Peter Selinger 2001-2017
</metadata>
<g transform="translate(0.000000,372.000000) scale(0.100000,-0.100000)"
fill="#000000" stroke="none">
<path d="M1875 3611 c-3 -5 -2 -12 3 -15 5 -3 9 1 9 9 0 17 -3 19 -12 6z"/>
<path d="M1754 3589 c-3 -6 -2 -15 3 -20 5 -5 9 -1 9 11 0 23 -2 24 -12 9z"/>
<path d="M1615 3580 c-3 -5 -1 -10 4 -10 6 0 11 5 11 10 0 6 -2 10 -4 10 -3 0
-8 -4 -11 -10z"/>
<path d="M1650 3580 c0 -5 5 -10 11 -10 5 0 7 5 4 10 -3 6 -8 10 -11 10 -2 0
-4 -4 -4 -10z"/>
<path d="M1915 3580 c-13 -6 -15 -9 -5 -9 8 0 22 4 30 9 18 12 2 12 -25 0z"/>
<path d="M1970 3574 c0 -1 6 -7 14 -13 10 -9 15 -8 19 2 3 8 -3 13 -14 13 -11
0 -19 -1 -19 -2z"/>
<path d="M1710 3560 c0 -5 5 -10 10 -10 6 0 10 5 10 10 0 6 -4 10 -10 10 -5 0
-10 -4 -10 -10z"/>
<path d="M1799 3546 c18 -20 18 -46 0 -46 -4 0 -6 6 -3 13 6 18 -16 37 -40 33
-21 -3 -37 -26 -29 -40 4 -5 0 -7 -9 -3 -9 3 -21 0 -27 -6 -9 -9 -11 -8 -6 6
4 9 3 17 -3 17 -15 0 -22 -14 -14 -26 9 -13 72 -12 64 1 -3 5 -2 7 3 3 4 -4
14 -3 22 3 8 8 13 8 13 1 0 -10 20 -9 68 2 15 3 20 1 16 -6 -4 -6 3 -4 16 5
17 11 27 13 36 6 8 -7 14 -7 19 1 8 12 26 14 23 1 -2 -5 2 -9 7 -10 6 -1 10 4
10 11 0 6 6 13 13 16 7 2 11 -2 10 -10 -2 -7 5 -12 14 -12 10 1 16 -2 13 -6
-3 -4 14 -6 37 -5 23 2 36 0 29 -5 -10 -5 -9 -9 4 -13 9 -4 13 -3 10 3 -3 6
-1 10 4 10 14 0 14 -27 1 -35 -5 -3 -10 -2 -10 4 0 5 -12 8 -27 7 -16 -2 -38
5 -52 15 -27 22 -42 24 -37 7 1 -7 1 -9 -2 -5 -2 4 -11 2 -20 -5 -9 -8 -13 -8
-9 -2 4 7 0 14 -8 18 -8 3 -17 1 -20 -4 -4 -6 -1 -10 6 -10 7 0 9 -3 6 -6 -4
-4 -13 -1 -22 6 -11 9 -15 9 -15 1 0 -7 -5 -9 -11 -5 -8 4 -7 9 2 15 10 6 10
9 2 9 -7 0 -17 -8 -22 -17 -8 -14 -10 -15 -11 -3 0 13 -1 13 -10 0 -6 -10 -10
-11 -10 -2 0 6 -5 12 -11 12 -5 0 -8 -3 -6 -7 3 -5 -6 -9 -19 -9 -13 -1 -24 2
-24 7 0 5 -4 9 -10 9 -5 0 -9 -5 -7 -12 1 -7 -9 -12 -23 -12 -14 -1 -28 -5
-32 -11 -5 -6 -8 -5 -8 3 0 6 -5 12 -11 12 -5 0 -8 -4 -5 -8 2 -4 -6 -8 -19
-8 -13 0 -21 4 -18 9 3 5 0 7 -8 5 -8 -3 -12 -12 -11 -19 2 -8 0 -11 -4 -7 -4
4 -14 2 -22 -5 -10 -7 -13 -8 -9 -1 4 7 -2 12 -18 12 -14 0 -22 -4 -20 -8 3
-4 -2 -10 -10 -13 -9 -4 -12 -1 -9 7 3 7 -2 13 -11 13 -9 0 -14 -6 -11 -14 3
-8 1 -11 -4 -8 -6 3 -10 0 -10 -7 0 -9 -3 -9 -10 2 -13 21 -12 39 1 20 9 -13
10 -12 5 3 -3 11 -2 16 4 12 6 -3 10 -1 10 5 0 7 6 8 19 0 14 -7 22 -7 27 1 4
8 9 7 15 -2 7 -11 9 -11 9 -1 0 7 4 11 9 7 5 -3 12 -1 16 5 4 6 10 8 15 5 5
-3 11 -1 15 5 9 15 25 12 25 -6 0 -9 5 -12 12 -8 8 5 4 13 -12 26 -18 14 -26
16 -37 7 -12 -10 -13 -8 -9 15 4 23 2 26 -9 16 -8 -6 -11 -19 -8 -28 5 -15 4
-15 -13 1 -19 18 -19 18 0 33 11 8 15 14 9 14 -6 0 -16 -7 -23 -15 -10 -13
-10 -19 4 -33 9 -10 13 -21 10 -25 -4 -3 -15 4 -25 16 -10 12 -18 18 -19 13 0
-6 -7 -1 -16 10 -13 16 -13 14 1 -9 9 -16 13 -32 9 -35 -4 -4 -9 -1 -11 6 -3
6 -10 12 -15 12 -6 0 -8 -3 -5 -7 9 -8 -44 -44 -55 -37 -4 3 -8 0 -8 -6 0 -6
-4 -9 -10 -5 -5 3 -8 11 -6 18 1 7 1 9 -1 5 -3 -5 -12 -8 -20 -8 -10 0 -13 -6
-9 -16 3 -9 6 -18 6 -21 0 -3 7 0 15 7 8 7 15 9 15 6 0 -4 9 -2 20 4 16 9 19
8 13 -6 -5 -13 -3 -15 7 -9 8 5 11 4 6 -3 -3 -6 -15 -9 -26 -7 -11 2 -20 -2
-20 -8 0 -8 -3 -8 -9 1 -7 11 -9 10 -15 -3 -3 -9 -11 -13 -17 -10 -6 4 -8 13
-5 21 7 19 -12 28 -29 14 -10 -8 -15 -9 -15 -2 0 6 5 14 10 17 6 3 10 10 10
15 0 5 -13 -5 -30 -21 -16 -17 -34 -28 -39 -25 -10 7 -23 -19 -14 -28 4 -3 11
-6 17 -6 6 0 5 4 -2 9 -11 7 -10 9 3 14 9 4 14 3 11 -1 -3 -5 1 -9 8 -9 8 0
12 6 9 14 -3 7 0 13 7 13 6 0 9 -4 5 -9 -3 -5 0 -13 6 -17 8 -5 9 -3 4 6 -6 9
-4 11 5 5 9 -6 11 -4 5 5 -5 8 -4 11 3 6 6 -4 9 -12 6 -19 -7 -19 -42 -38 -49
-27 -3 5 -13 6 -21 3 -13 -5 -13 -8 -2 -15 10 -8 10 -9 -2 -5 -8 2 -14 10 -12
16 2 10 -11 15 -30 12 -13 -2 -9 9 12 31 11 12 17 24 14 27 -4 3 -9 0 -11 -6
-3 -10 -10 -10 -26 -2 -20 9 -20 9 -5 -4 12 -9 14 -17 7 -24 -10 -10 1 -55 14
-54 14 2 7 -13 -8 -15 -8 -1 -13 2 -9 7 3 5 0 9 -5 9 -6 0 -10 3 -10 8 3 18
-2 35 -8 29 -3 -4 -13 -1 -21 5 -14 12 -26 3 -52 -42 -5 -8 -12 -12 -16 -7 -4
4 -1 15 7 25 8 10 -3 0 -23 -22 -47 -50 -58 -43 -16 10 20 24 23 31 10 20 -13
-11 -30 -21 -38 -22 -9 -1 -19 -6 -22 -10 -4 -4 1 -4 11 -1 13 5 17 3 14 -5
-2 -7 -11 -12 -18 -10 -11 3 -12 1 -1 -9 6 -7 12 -24 12 -39 0 -19 3 -22 9
-10 6 8 7 18 4 24 -4 5 -1 6 7 1 8 -5 11 -4 6 3 -9 15 22 8 37 -8 10 -12 9
-12 -5 -1 -21 15 -24 2 -5 -18 8 -9 8 -12 0 -7 -6 3 -13 3 -16 -1 -2 -5 -2 -2
-1 5 2 6 -1 12 -6 12 -6 0 -11 -4 -11 -10 -1 -5 -2 -14 -3 -19 0 -5 -5 -13 -9
-18 -5 -4 -7 -2 -5 6 1 7 -2 15 -9 18 -8 3 -11 -3 -8 -16 3 -15 0 -18 -12 -14
-12 5 -14 3 -8 -7 5 -8 4 -11 -3 -6 -6 3 -13 -3 -17 -14 -5 -17 -9 -19 -21 -9
-11 9 -18 9 -26 1 -9 -9 -7 -12 7 -12 12 0 -4 -17 -45 -47 -35 -27 -68 -47
-72 -46 -7 3 -12 -12 -9 -29 0 -5 -5 -7 -12 -5 -6 1 -11 -4 -10 -10 4 -19 -5
-16 -17 7 -9 16 -8 18 5 14 18 -7 20 7 3 24 -9 9 -9 12 0 12 7 0 12 -5 12 -11
0 -5 5 -7 11 -4 6 5 4 11 -6 19 -16 11 -15 13 1 27 16 12 17 12 11 -3 -3 -10
-1 -20 5 -24 7 -5 8 -2 3 6 -6 9 -4 11 5 5 9 -6 11 -4 5 5 -6 9 -4 11 5 5 9
-6 11 -4 5 5 -6 9 -4 11 5 5 9 -5 11 -4 6 3 -5 8 -1 10 11 7 12 -4 10 -2 -3 6
-12 6 -27 21 -33 33 -11 20 -8 3 5 -29 3 -8 1 -15 -5 -15 -6 0 -11 6 -11 12 0
7 -7 2 -16 -11 l-17 -24 -14 24 c-10 17 -12 18 -8 4 14 -41 14 -67 0 -61 -8 3
-17 0 -21 -6 -4 -6 -3 -8 3 -5 10 7 38 -42 29 -51 -3 -3 -12 1 -21 8 -8 7 -15
8 -15 3 0 -5 -8 -10 -17 -10 -21 0 -45 16 -38 26 2 4 -2 8 -10 8 -20 0 -19
-13 2 -21 14 -6 14 -8 -3 -22 -19 -14 -19 -14 1 -12 14 2 20 -3 20 -17 0 -11
4 -26 8 -32 5 -8 4 -13 -2 -13 -6 0 -11 5 -11 11 0 5 -5 7 -10 4 -8 -5 -7 -11
1 -21 6 -8 8 -15 3 -16 -5 0 -13 -2 -19 -3 -5 -2 -14 -3 -20 -4 -5 -1 -4 -5 3
-9 9 -6 7 -13 -8 -30 -11 -11 -20 -26 -20 -33 0 -6 -7 -9 -15 -6 -15 6 -31 -8
-18 -16 5 -2 2 -2 -5 -1 -16 4 -16 -8 1 -25 10 -10 8 -11 -7 -5 -15 6 -17 4
-11 -6 6 -9 4 -11 -5 -5 -9 5 -10 2 -6 -11 3 -11 2 -25 -3 -33 -6 -9 -9 -7 -9
10 0 13 -1 31 -3 39 -2 8 2 14 8 13 7 -2 13 4 13 12 0 19 -17 19 -27 0 -8 -13
-12 -13 -37 0 -37 19 -40 19 -19 -3 10 -10 24 -17 31 -14 7 3 10 -1 7 -10 -8
-20 -35 -19 -35 1 -1 9 -7 1 -15 -18 -8 -18 -12 -37 -9 -43 3 -5 -2 -8 -12 -6
-16 2 -19 -3 -19 -32 0 -19 -6 -40 -14 -46 -8 -6 -16 -17 -17 -25 -9 -47 -15
-64 -24 -73 -15 -15 -12 -29 5 -22 8 3 15 1 15 -4 0 -9 -15 -14 -33 -11 -5 1
-6 -3 -3 -8 4 -5 -2 -16 -12 -23 -11 -7 -20 -17 -21 -23 -1 -5 -8 -10 -14 -9
-7 1 -13 -7 -13 -17 0 -12 4 -15 11 -9 7 6 16 5 23 -2 17 -17 15 -33 -2 -19
-11 9 -16 9 -22 0 -4 -7 -3 -9 4 -5 6 3 13 2 17 -3 10 -17 34 -1 30 20 -3 13
0 17 8 13 7 -4 6 -1 -2 7 -10 11 -15 11 -18 1 -3 -6 -9 -10 -14 -6 -15 9 31
66 48 60 8 -3 11 -1 8 4 -4 6 -1 9 6 8 9 -2 13 7 13 24 -1 16 3 25 9 21 6 -3
7 -1 3 6 -4 6 -12 8 -18 5 -6 -4 -9 -1 -6 7 3 8 14 13 26 13 11 -1 23 5 26 12
3 9 -1 11 -12 8 -14 -5 -14 -3 1 6 14 9 22 9 30 1 8 -8 8 -11 -2 -11 -7 0 -9
-4 -6 -10 3 -5 1 -10 -5 -10 -6 0 -8 -5 -4 -12 5 -9 2 -9 -9 1 -10 8 -17 9
-17 3 0 -6 5 -14 10 -17 7 -4 5 -14 -4 -27 -8 -11 -12 -28 -9 -37 4 -12 3 -13
-5 -2 -6 8 -12 9 -16 3 -3 -6 -2 -13 4 -17 15 -9 1 -27 -17 -21 -9 4 -13 1
-10 -6 2 -7 10 -12 16 -10 8 1 9 -2 5 -10 -5 -7 -9 -17 -11 -23 -1 -5 -4 -20
-7 -32 -2 -12 -10 -31 -16 -43 -6 -11 -8 -25 -5 -30 10 -17 -13 -20 -26 -3 -8
9 -9 14 -3 10 7 -4 14 -1 17 6 3 7 -5 13 -19 13 -30 2 -30 2 1 -46 14 -22 21
-40 15 -40 -5 0 -10 5 -10 10 0 7 -7 7 -21 -1 -17 -9 -20 -8 -16 3 2 7 9 12
15 11 6 -2 3 11 -6 27 -9 16 -19 25 -20 19 -2 -5 1 -16 7 -23 9 -10 7 -17 -6
-27 -15 -12 -16 -12 -11 2 3 9 3 22 -2 28 -5 9 -7 4 -7 -13 0 -16 7 -31 19
-37 19 -10 19 -11 -4 -36 -12 -15 -18 -23 -12 -20 8 5 11 -4 10 -23 0 -17 -6
-30 -12 -30 -7 0 -11 8 -9 18 1 9 0 11 -2 4 -3 -7 -10 -9 -16 -6 -9 5 -9 4 0
-6 6 -7 9 -19 6 -26 -3 -8 0 -14 7 -14 6 0 8 5 5 10 -3 6 1 10 9 10 20 0 20
-14 1 -30 -8 -7 -12 -16 -9 -21 12 -20 13 -50 1 -46 -7 2 -11 13 -9 23 2 15 1
16 -7 5 -13 -19 9 -54 25 -40 8 6 14 4 18 -6 3 -9 9 -14 13 -12 5 3 8 -8 8
-23 1 -16 -3 -28 -8 -27 -5 1 -12 -4 -14 -11 -3 -7 1 -11 8 -10 8 2 13 -11 14
-39 0 -30 -2 -40 -10 -32 -5 5 -10 22 -10 36 -1 31 -30 40 -54 15 -15 -15 -15
-15 1 -9 10 3 20 2 23 -3 3 -4 0 -10 -7 -12 -8 -3 -6 -16 10 -42 l22 -37 -22
6 c-23 7 -23 7 -3 -8 11 -9 21 -14 23 -13 7 8 10 46 3 41 -10 -6 -22 20 -14
29 7 7 37 -32 39 -51 1 -7 -2 -10 -8 -7 -6 4 -8 1 -6 -7 3 -8 10 -13 15 -12 5
1 10 -4 10 -12 0 -8 -4 -12 -9 -9 -4 3 -8 1 -8 -4 0 -6 8 -13 18 -17 16 -6 16
-7 -2 -21 -18 -12 -15 -18 6 -15 4 0 5 -8 3 -19 -2 -11 1 -22 6 -25 5 -4 7
-11 3 -16 -3 -5 -1 -16 6 -24 10 -12 8 -12 -14 -2 -16 8 -21 14 -13 19 8 5 7
8 -3 8 -12 0 -12 2 -2 9 11 7 11 9 0 14 -9 3 -14 18 -13 41 1 19 -1 33 -5 31
-4 -2 -6 6 -5 18 2 16 -2 23 -15 23 -10 0 -16 -4 -14 -8 3 -4 -1 -8 -8 -8 -8
0 -7 -4 4 -11 9 -5 15 -16 12 -24 -4 -8 -11 -12 -16 -9 -6 4 -5 -3 2 -15 6
-12 15 -19 21 -16 5 4 9 -1 9 -9 0 -19 -11 -21 -27 -5 -9 9 -11 7 -8 -7 3 -20
7 -21 38 -8 17 6 18 5 6 -14 -7 -11 -18 -18 -25 -15 -6 2 -15 0 -19 -6 -4 -7
0 -8 11 -4 13 5 15 3 9 -8 -8 -12 -6 -12 8 0 25 20 30 8 7 -17 -22 -23 -25
-32 -11 -32 5 0 12 9 16 19 4 13 12 18 23 15 14 -5 15 -4 2 5 -8 6 -10 11 -4
11 6 0 19 -10 30 -22 10 -12 13 -18 7 -14 -8 4 -13 2 -13 -5 0 -8 -4 -8 -13
-1 -9 8 -16 6 -24 -7 -9 -14 -7 -20 9 -30 11 -7 17 -15 14 -18 -3 -3 -13 0
-21 7 -12 10 -18 11 -28 1 -9 -10 -9 -11 4 -6 9 3 23 -3 34 -15 10 -11 13 -20
7 -20 -6 0 -13 4 -17 9 -3 6 -14 9 -25 8 -14 -1 -16 -4 -9 -14 6 -7 8 -17 5
-22 -4 -5 -2 -12 3 -15 5 -4 8 5 6 19 -1 14 1 25 4 25 14 -1 40 -27 34 -34 -4
-4 1 -4 11 0 16 6 17 5 5 -14 -7 -11 -16 -19 -20 -16 -4 2 -10 -3 -13 -12 -3
-8 -2 -13 3 -9 14 8 41 -5 41 -21 0 -17 5 -17 32 -3 24 13 40 -3 30 -29 -4
-11 -1 -13 8 -7 8 5 11 4 7 -2 -4 -6 0 -16 8 -23 10 -8 12 -17 6 -24 -6 -7 -6
-17 -1 -26 8 -12 10 -11 11 5 l0 20 9 -20 c4 -11 4 -24 -1 -29 -16 -17 -10
-29 8 -15 14 12 14 10 -1 -13 -16 -25 -36 -42 -21 -19 3 5 0 13 -6 17 -7 4 -9
3 -6 -3 6 -10 -40 -38 -56 -34 -5 1 -6 -3 -2 -9 4 -7 14 -5 27 4 14 10 27 12
38 6 10 -5 20 -6 24 -3 3 3 6 2 6 -4 0 -17 -13 -23 -26 -12 -13 10 -32 -6 -20
-18 3 -4 6 -1 6 5 0 7 14 3 35 -9 19 -12 35 -26 35 -31 0 -6 -5 -6 -14 1 -9 8
-16 8 -20 2 -4 -5 -2 -12 4 -16 5 -3 10 -3 10 2 1 4 8 -5 16 -20 11 -20 20
-26 33 -22 11 3 18 0 18 -10 0 -19 -36 -14 -52 8 -12 16 -25 13 -25 -6 0 -6 3
-7 7 -4 3 4 13 1 22 -7 16 -14 20 -16 42 -16 5 0 7 -4 4 -10 -4 -6 1 -7 12 -3
16 5 15 3 -3 -18 -15 -16 -19 -30 -15 -43 7 -17 8 -17 14 -3 3 8 1 17 -4 19
-6 2 -1 12 12 23 l22 20 -7 -22 c-8 -27 2 -29 30 -8 16 13 16 14 1 9 -9 -3
-17 -2 -17 3 0 5 9 9 21 10 14 1 19 -3 15 -12 -3 -8 3 -19 14 -25 12 -6 17
-16 13 -26 -3 -9 0 -14 8 -12 8 2 13 -5 13 -15 -2 -13 3 -16 20 -12 15 5 17 4
7 -3 -9 -7 -10 -11 -2 -13 7 -3 9 -12 6 -21 -4 -9 -12 -15 -20 -12 -14 6 -29
-23 -15 -31 5 -3 7 -13 4 -23 -3 -9 3 -2 13 16 19 33 40 35 23 1 -7 -12 -6
-20 2 -25 7 -4 8 -3 4 4 -4 7 -2 12 5 12 6 0 9 -8 6 -20 -3 -13 -1 -18 6 -13
12 7 90 12 82 5 -2 -2 6 -13 18 -24 12 -11 16 -16 8 -12 -11 5 -13 2 -9 -14 3
-12 0 -29 -8 -39 -7 -10 -13 -22 -13 -28 0 -5 4 -2 10 8 5 9 15 17 21 17 6 0
5 -7 -3 -17 -13 -17 -12 -17 6 -2 11 9 27 19 35 22 9 3 10 6 3 6 -7 1 -13 9
-13 19 0 14 -2 15 -9 2 -6 -8 -7 -19 -4 -25 4 -5 2 -6 -2 -2 -15 13 -14 35 1
41 7 3 18 -4 24 -15 6 -11 15 -17 19 -14 5 3 19 -9 32 -25 13 -16 30 -30 37
-30 6 0 12 -5 12 -11 0 -5 5 -7 10 -4 6 4 9 1 8 -7 -2 -7 4 -12 14 -10 9 1 22
-6 28 -18 6 -11 14 -19 18 -19 20 3 32 -3 32 -16 0 -8 3 -14 8 -14 21 4 31 -3
29 -20 0 -11 -5 -17 -9 -15 -5 3 -6 9 -3 14 3 5 -5 7 -18 4 -18 -3 -27 2 -35
19 -7 14 -11 16 -11 7 -1 -13 -2 -13 -11 0 -9 13 -10 13 -10 0 0 -13 -1 -13
-10 0 -5 8 -13 11 -17 6 -4 -5 -2 -11 5 -13 6 -3 9 -10 5 -16 -4 -7 -1 -7 9 1
10 8 19 9 22 4 3 -6 -1 -12 -9 -16 -8 -3 -15 -11 -15 -18 0 -9 3 -9 10 2 9 13
11 13 21 0 9 -13 10 -12 5 3 -8 26 12 20 43 -13 21 -23 30 -27 39 -18 7 7 12
8 12 2 0 -6 -5 -15 -12 -22 -9 -9 -9 -12 0 -12 7 0 12 5 12 10 0 6 5 10 11 10
6 0 8 -7 5 -17 -4 -10 -4 -14 0 -11 3 4 13 1 20 -7 8 -8 21 -12 28 -9 8 3 17
0 21 -6 5 -8 11 -8 22 1 12 11 13 8 8 -17 -5 -25 -4 -26 4 -6 12 25 26 31 17
6 -5 -14 -4 -15 9 -4 18 15 19 1 1 -22 -7 -10 -17 -14 -21 -10 -5 4 -5 1 0 -7
7 -12 10 -12 19 1 6 8 17 13 24 10 7 -2 18 1 25 6 14 12 51 -10 39 -23 -4 -5
-1 -4 7 0 11 6 13 4 8 -7 -6 -17 3 -17 43 0 14 6 18 11 9 11 -8 1 -21 -5 -27
-11 -10 -10 -12 -7 -9 12 2 13 10 26 17 28 7 3 10 0 7 -5 -6 -9 9 -10 46 -4 5
0 5 6 2 11 -5 8 -11 8 -20 0 -10 -8 -16 -7 -23 6 -7 12 -11 13 -17 5 -5 -9
-10 -9 -21 0 -10 8 -14 8 -14 0 0 -6 5 -11 11 -11 5 0 8 -4 4 -10 -9 -15 -34
0 -28 18 4 13 3 14 -5 4 -7 -11 -10 -11 -15 3 -4 9 -3 13 3 10 6 -3 10 -1 10
4 0 6 -4 11 -10 11 -5 0 -10 5 -10 11 0 8 4 8 15 -1 8 -6 19 -9 25 -5 6 4 10
3 9 -2 -3 -20 2 -25 15 -14 10 8 16 9 21 1 3 -6 11 -8 16 -5 5 4 6 -2 2 -12
-6 -15 -4 -16 8 -6 23 19 44 -5 24 -26 -12 -14 -11 -19 7 -41 l20 -25 -15 26
c-15 26 -13 39 5 39 5 0 7 -4 4 -8 -3 -5 4 -21 15 -38 13 -19 19 -24 19 -12 0
9 -6 18 -12 21 -7 2 -10 8 -5 12 4 5 17 -1 30 -12 16 -15 33 -21 60 -19 28 2
37 0 33 -10 -3 -8 0 -11 10 -7 11 4 12 9 3 19 -8 9 -8 14 -1 14 6 0 17 -9 25
-21 9 -13 17 -16 22 -10 3 6 11 11 17 11 7 0 7 -4 1 -12 -15 -20 -24 -50 -13
-43 6 3 10 13 10 20 0 8 9 19 19 25 31 16 37 12 13 -10 -12 -12 -22 -24 -22
-27 0 -3 9 2 19 11 10 10 21 14 23 9 3 -4 3 -2 1 5 -1 8 3 12 9 9 7 -2 12 -13
10 -23 -3 -18 -3 -18 11 1 9 11 19 17 23 12 4 -4 16 0 26 10 20 18 25 4 6 -15
-8 -8 -9 -12 -1 -12 6 0 13 6 15 12 4 10 9 8 21 -3 9 -9 13 -20 9 -25 -4 -5 2
-2 13 6 30 21 32 24 13 17 -24 -8 -46 20 -23 29 10 4 21 1 25 -6 7 -11 12 -11
26 1 16 12 17 12 11 -4 -6 -15 -4 -16 13 -7 10 6 21 6 24 1 3 -5 17 -8 32 -8
17 0 22 2 13 7 -6 5 -18 6 -25 3 -6 -2 -15 1 -19 6 -3 6 -11 8 -17 5 -6 -4 -8
-2 -4 4 8 13 43 10 74 -7 13 -7 20 -17 15 -24 -4 -7 2 -5 13 3 10 8 21 16 24
18 3 2 -4 2 -14 0 -10 -1 -21 3 -24 11 -2 8 0 11 6 7 5 -3 12 0 15 7 3 7 -3
13 -13 13 -10 0 -17 -3 -15 -7 6 -8 -58 -5 -73 5 -8 4 -11 3 -10 -5 2 -7 -9
-13 -24 -14 -15 -1 -25 2 -22 6 3 5 -1 6 -9 3 -8 -3 -17 1 -20 9 -7 18 14 17
37 -2 13 -11 17 -11 22 2 3 8 16 14 29 13 13 0 21 -4 19 -8 -3 -4 5 -6 16 -5
13 1 19 6 15 15 -2 7 0 10 5 7 5 -3 19 -1 31 6 12 6 19 7 15 1 -3 -5 5 -9 19
-9 14 0 22 3 20 7 -6 10 21 7 31 -3 14 -14 26 -7 14 8 -7 9 -8 15 -2 15 5 0
13 -7 16 -16 5 -13 9 -14 21 -4 8 7 12 17 8 24 -4 6 0 5 9 -2 9 -7 18 -9 20
-3 1 5 10 11 18 13 8 2 18 8 23 13 4 6 5 -1 3 -15 -3 -14 -5 -28 -5 -32 -1 -5
-6 -8 -12 -8 -5 0 -8 4 -4 9 3 5 0 13 -6 17 -8 5 -9 3 -4 -6 5 -8 4 -11 -3 -6
-6 3 -13 2 -17 -4 -4 -6 -12 -7 -18 -4 -7 4 -4 -2 6 -12 11 -12 20 -15 25 -9
4 6 14 11 22 11 8 1 24 5 35 9 16 6 15 3 -5 -13 -13 -11 -28 -18 -32 -16 -4 3
-8 1 -8 -5 0 -5 9 -9 20 -8 10 1 17 3 14 6 -7 7 49 41 58 35 4 -3 14 -2 21 3
6 4 14 8 17 8 22 3 50 18 50 27 0 6 9 3 20 -7 32 -29 23 -8 -10 24 -27 25 -29
29 -13 35 10 4 20 7 22 6 2 -1 8 4 12 12 7 10 9 10 9 -2 0 -13 1 -13 10 0 7
11 10 11 10 2 0 -7 5 -10 10 -7 6 4 7 11 4 17 -4 7 -2 8 4 4 7 -4 12 -3 12 2
0 6 7 13 16 16 8 3 12 2 9 -3 -3 -5 -1 -12 5 -16 5 -3 11 -1 11 4 1 6 2 16 3
23 0 6 8 13 16 15 13 4 13 3 0 -6 -13 -10 -8 -15 12 -12 4 0 5 -6 1 -15 -4
-10 -8 -12 -13 -5 -4 7 -11 2 -18 -14 -6 -14 -17 -25 -23 -25 -8 0 -8 4 0 14
9 11 9 16 0 22 -8 5 -9 3 -4 -6 6 -9 4 -11 -5 -5 -9 6 -11 4 -5 -5 6 -9 4 -11
-6 -5 -8 4 -2 -4 13 -19 29 -27 49 -36 29 -12 -8 10 -9 16 -1 21 5 3 10 1 10
-4 0 -6 5 -11 10 -11 6 0 9 3 8 8 -4 16 14 52 24 46 6 -4 6 1 -1 14 -9 17 -6
23 15 37 14 9 28 14 32 11 11 -12 10 -31 -4 -44 -17 -15 -18 -8 -4 18 8 16 8
18 -5 14 -8 -3 -12 -10 -9 -15 3 -5 -3 -6 -13 -2 -17 6 -17 6 -1 -10 9 -10 15
-24 12 -31 -3 -8 0 -17 7 -22 9 -5 10 -2 6 9 -3 8 1 21 10 29 14 11 15 10 9
-9 -4 -12 -3 -24 2 -27 5 -3 8 12 7 33 -1 35 1 38 27 38 18 0 30 -7 34 -19 3
-11 8 -17 11 -15 2 3 0 14 -6 26 -7 11 -7 22 -2 25 5 4 11 3 14 -1 2 -5 2 -3
1 4 -4 17 13 26 19 11 2 -7 1 -20 -4 -28 -5 -11 -2 -16 11 -16 14 0 16 4 9 12
-7 8 -6 14 1 19 6 3 8 10 6 13 -2 4 9 23 26 42 19 23 27 28 23 15 -11 -33 -11
-37 3 -40 7 -2 8 -1 3 1 -15 8 -1 33 15 27 8 -3 11 -10 7 -16 -4 -6 -1 -7 7
-2 10 6 10 10 -3 19 -14 11 -13 14 3 36 10 13 16 29 14 35 -3 7 2 12 11 12 18
0 18 -2 3 -30 -10 -20 -10 -21 5 -8 10 7 17 20 17 28 0 8 4 11 10 8 6 -4 7 1
3 12 -6 16 -5 16 10 4 9 -7 15 -17 12 -20 -2 -4 2 -8 10 -8 20 0 19 7 -2 23
-12 9 -14 13 -5 14 8 0 10 5 6 12 -5 8 -2 9 9 5 9 -3 16 -3 16 1 -3 19 2 26
10 13 11 -18 3 -43 -12 -34 -5 3 -7 2 -4 -4 7 -11 43 -11 54 1 5 4 2 6 -6 4
-7 -2 -15 7 -17 20 -4 20 -2 22 19 12 21 -11 21 -10 3 4 -10 9 -23 13 -27 10
-5 -3 -9 -1 -9 4 0 6 7 13 16 16 22 8 26 8 19 -4 -4 -6 -3 -10 2 -9 4 1 10 0
13 -1 19 -7 39 -7 34 1 -3 5 -9 7 -14 4 -9 -6 -23 12 -26 33 -2 8 3 11 12 8 8
-3 17 1 20 9 4 8 10 12 15 9 5 -3 9 -1 9 5 0 5 -4 13 -10 16 -5 3 -10 1 -10
-5 0 -6 -5 -8 -10 -5 -6 4 -8 10 -5 15 3 5 0 12 -6 16 -7 4 -9 3 -6 -3 4 -6 0
-16 -8 -23 -10 -9 -15 -9 -15 -1 0 6 5 11 10 11 6 0 9 6 8 13 -2 6 4 10 12 9
8 -2 19 -4 25 -5 5 -1 15 -9 22 -17 8 -10 12 -11 13 -3 0 6 -5 15 -10 18 -6 4
-7 11 -4 17 4 6 12 1 20 -13 7 -13 13 -19 14 -14 0 6 -7 21 -16 33 -8 12 -11
22 -5 22 5 0 13 -5 16 -11 5 -6 13 -2 22 11 14 20 16 20 27 4 12 -16 13 -15
11 2 -2 28 -15 45 -27 38 -6 -4 -9 -1 -6 7 3 8 12 13 22 11 9 -2 16 1 16 6 0
5 9 12 20 15 21 5 28 27 9 27 -5 0 -7 -4 -4 -10 3 -5 2 -10 -4 -10 -5 0 -12 4
-16 9 -7 12 29 33 40 23 5 -4 5 -2 1 5 -3 6 4 19 16 27 12 9 18 16 13 16 -6 0
-3 5 5 11 13 9 13 10 0 6 -8 -2 -23 0 -34 5 -13 7 -16 7 -12 -1 4 -6 3 -11 -3
-11 -17 0 -22 18 -6 24 8 3 13 11 11 18 -1 7 -1 10 1 5 3 -4 9 -5 13 -2 5 3
12 0 16 -6 4 -7 3 -9 -4 -5 -6 3 -13 3 -16 -2 -2 -4 3 -8 13 -9 13 -1 18 6 18
28 0 24 -3 27 -16 16 -12 -10 -13 -9 -6 3 5 8 10 21 11 28 2 8 11 20 21 28 14
10 15 13 3 14 -13 0 -13 2 -1 9 8 5 16 17 17 27 2 9 8 20 14 24 7 4 12 11 13
16 1 5 4 8 7 7 3 -1 14 -5 24 -9 15 -6 18 -4 13 9 -4 10 2 22 15 31 18 13 19
18 8 31 -10 12 -10 15 0 15 7 0 19 -8 27 -17 12 -16 12 -14 0 12 -14 30 -12
60 3 50 16 -10 20 13 5 25 -8 7 -15 17 -15 22 0 6 5 6 14 -1 10 -9 17 -7 27 6
13 16 12 17 -3 5 -10 -8 -19 -9 -22 -3 -7 11 -24 9 -46 -4 -12 -7 -13 -6 -3 7
7 8 9 19 5 24 -4 4 1 2 11 -5 20 -15 23 -2 5 18 -7 8 -8 11 -3 8 6 -3 16 3 23
14 14 21 3 26 -17 7 -11 -11 -12 -10 -5 2 8 15 10 22 17 58 2 9 9 18 15 18 7
1 15 3 20 4 4 2 13 4 21 4 8 1 16 8 18 16 4 12 3 12 -5 2 -7 -11 -10 -10 -16
3 -9 23 -8 25 9 19 17 -7 21 11 5 21 -5 3 -10 11 -10 17 0 6 9 3 20 -7 12 -11
18 -25 15 -34 -5 -13 -4 -13 6 -4 10 10 9 17 -8 35 -11 13 -18 29 -16 36 3 6
0 12 -5 12 -15 0 -28 -23 -26 -47 0 -12 -3 -20 -8 -17 -6 4 -5 -4 2 -16 10
-18 9 -21 -1 -15 -8 6 -10 4 -4 -5 6 -9 4 -11 -5 -5 -9 5 -11 4 -6 -3 5 -8 1
-10 -9 -5 -9 3 -13 9 -8 12 4 3 8 17 9 31 0 14 5 24 12 22 7 -1 12 2 12 8 0 5
-5 10 -11 10 -6 0 -9 5 -7 11 2 6 7 10 12 9 9 -2 26 19 26 34 0 5 -7 3 -15 -4
-9 -7 -18 -10 -22 -6 -3 3 -2 6 3 6 5 0 9 12 8 28 -1 27 13 55 25 48 4 -3 18
4 31 15 21 16 22 18 5 13 -18 -5 -18 -4 2 14 17 15 19 21 9 25 -21 8 -51 1
-48 -12 1 -6 -3 -11 -9 -11 -5 0 -7 -5 -4 -11 5 -6 12 -4 21 8 7 10 14 13 14
6 0 -6 -5 -15 -10 -18 -6 -4 -8 -10 -6 -14 3 -3 -3 -7 -13 -7 -12 0 -17 7 -15
21 1 11 3 25 3 31 2 19 45 33 66 22 14 -8 16 -8 10 2 -6 10 -4 12 9 7 10 -4
15 -3 11 4 -4 5 -15 7 -26 4 -11 -4 -19 -2 -19 4 0 10 14 15 33 12 5 -1 6 3 2
9 -4 6 -12 7 -23 1 -11 -6 -24 -6 -35 0 -9 6 -21 8 -25 5 -4 -2 -7 14 -6 37 1
23 -3 45 -9 49 -7 4 -7 11 2 22 13 15 8 21 -14 16 -5 -1 -1 9 10 21 16 18 17
21 4 17 -13 -5 -16 -1 -14 20 2 15 4 32 5 37 5 21 -1 29 -10 15 -8 -13 -10
-12 -10 4 0 12 5 16 15 13 8 -4 17 -1 21 5 4 7 9 6 15 -3 14 -22 10 -33 -5
-20 -12 10 -14 9 -12 -6 2 -10 -2 -21 -8 -25 -7 -5 -6 -8 4 -8 13 0 13 -2 0
-11 -13 -9 -13 -10 2 -6 16 6 20 -15 5 -29 -4 -4 0 -16 10 -26 15 -17 15 -18
-1 -18 -9 0 -14 -5 -11 -10 4 -6 11 -7 17 -4 7 5 8 2 3 -6 -6 -9 -4 -11 6 -6
8 4 6 1 -4 -7 -14 -11 -15 -17 -6 -23 7 -4 20 2 31 16 23 29 23 37 -2 45 -11
4 -17 11 -14 17 4 7 2 8 -4 4 -7 -4 -12 -1 -12 8 0 20 5 20 24 0 9 -8 16 -11
16 -5 0 6 -9 15 -20 21 -16 9 -18 15 -10 30 9 17 8 19 -7 13 -16 -6 -16 -5 -4
11 14 17 16 17 30 -3 12 -16 20 -18 31 -10 13 10 13 10 -1 6 -19 -6 -54 46
-45 68 3 9 0 12 -10 8 -10 -4 -12 0 -8 11 3 9 2 16 -4 16 -13 0 -10 24 7 44
14 17 7 36 -13 36 -16 0 -16 31 -1 43 6 5 3 7 -7 3 -10 -3 -20 -1 -23 4 -4 6
-1 10 6 10 22 0 1 13 -26 15 -30 4 -33 -11 -4 -20 17 -6 19 -9 8 -16 -12 -7
-12 -9 0 -9 8 0 12 -3 8 -6 -3 -3 -16 1 -29 10 -12 9 -19 16 -14 16 5 0 1 9
-9 20 -18 20 -18 21 1 14 17 -7 18 -6 4 11 -11 14 -12 19 -2 22 6 3 9 9 6 14
-3 6 -12 5 -22 -3 -10 -8 -13 -8 -9 -1 4 6 4 13 0 16 -5 2 -2 2 5 1 19 -5 14
6 -14 28 -14 11 -23 23 -20 26 3 3 0 12 -7 21 -10 14 -10 14 4 4 11 -9 19 -9
26 -2 8 8 13 7 18 -2 6 -8 4 -10 -6 -4 -12 7 -12 6 0 -9 13 -15 13 -19 0 -27
-11 -8 -10 -9 6 -7 15 2 19 -2 17 -17 -2 -16 -1 -17 7 -5 8 11 10 6 7 -20 -3
-29 0 -36 15 -37 12 -1 19 5 19 15 0 15 2 15 10 2 13 -20 13 -4 0 21 -8 14 -7
19 1 19 7 0 9 3 6 6 -4 4 -13 1 -22 -6 -9 -8 -15 -8 -15 -2 0 6 5 14 10 17 6
3 10 11 10 18 0 6 -7 2 -15 -9 -17 -22 -20 -12 -4 18 8 15 8 19 0 13 -16 -9
-40 12 -36 33 2 9 4 17 5 17 1 0 3 9 5 19 4 22 -24 65 -42 66 -7 0 -13 5 -13
11 0 6 -7 9 -15 6 -8 -4 -17 -2 -20 3 -6 10 7 14 35 11 13 -2 13 -1 0 8 -8 6
-11 11 -6 11 6 0 1 6 -9 14 -11 8 -26 11 -35 8 -13 -5 -13 -4 0 13 9 11 10 16
3 11 -13 -7 -16 0 -16 37 0 9 -3 17 -8 17 -4 0 -8 -8 -8 -17 0 -10 -2 -30 -5
-45 -3 -21 -1 -26 12 -21 15 4 15 3 2 -7 -12 -9 -11 -10 9 -5 15 5 21 3 17 -3
-3 -6 -20 -10 -37 -10 -20 1 -26 4 -17 9 12 8 4 13 -16 10 -5 -1 -4 5 3 13 7
8 9 21 5 27 -4 7 -3 9 3 6 5 -3 10 0 10 8 0 8 -4 12 -8 10 -4 -3 -10 2 -13 11
-5 12 -2 15 9 10 9 -3 14 -2 10 3 -3 5 1 11 7 14 7 2 9 8 5 13 -4 5 -12 2 -17
-6 -7 -12 -12 -12 -22 -2 -9 9 -9 12 0 12 6 0 16 8 21 18 7 14 6 19 -4 19 -7
0 -11 -5 -9 -11 2 -6 -7 -12 -21 -12 -30 -2 -32 7 -6 23 10 7 19 23 19 38 0
17 -3 23 -8 14 -5 -6 -6 -19 -2 -27 4 -11 1 -13 -8 -7 -8 5 -11 4 -7 -2 4 -6
0 -13 -8 -16 -10 -4 -12 -1 -8 10 5 12 2 15 -10 10 -11 -4 -14 -2 -10 9 3 8
12 13 19 10 8 -3 11 0 7 10 -4 10 -9 12 -18 4 -7 -6 -17 -9 -21 -8 -5 2 -9 -2
-9 -7 0 -5 3 -9 7 -8 4 2 4 -5 1 -14 -5 -12 -2 -15 10 -10 15 6 16 4 6 -14 -7
-13 -7 -19 -1 -15 6 3 14 1 17 -5 4 -5 13 -8 20 -5 8 3 12 -2 10 -12 -1 -9 2
-22 7 -29 5 -7 6 -18 2 -24 -4 -7 -3 -9 4 -6 6 5 8 -1 5 -14 -4 -16 -8 -17
-14 -7 -5 7 -6 22 -2 33 5 18 4 19 -13 5 -18 -14 -18 -14 -4 4 14 18 13 19 -3
13 -14 -5 -20 -2 -24 13 -3 11 -10 20 -15 20 -5 0 -8 7 -6 16 2 10 -3 19 -11
22 -10 3 -11 0 -5 -9 6 -12 5 -12 -8 -1 -18 14 -18 26 0 59 7 12 18 20 26 17
8 -3 15 3 18 13 4 14 -1 19 -16 20 -12 1 -15 -1 -8 -4 16 -6 16 -24 0 -20 -7
1 -21 10 -32 19 -10 10 -22 15 -26 13 -5 -3 -11 2 -14 11 -4 10 -1 14 6 11 7
-2 19 3 26 12 11 14 12 13 7 -6 -7 -25 5 -36 25 -21 12 8 12 9 -2 4 -22 -7
-23 3 -3 31 10 14 12 24 5 28 -6 4 -9 1 -8 -6 2 -7 -2 -13 -9 -14 -6 0 -15 -3
-19 -7 -11 -11 -34 -10 -34 2 0 6 8 10 18 11 11 0 7 4 -10 10 -19 8 -25 15
-20 27 5 15 4 15 -12 0 -30 -30 -36 -23 -37 41 -1 16 -4 20 -9 11 -6 -10 -9
-9 -14 1 -3 8 -3 3 1 -11 5 -22 4 -23 -10 -11 -13 10 -14 18 -7 35 10 20 10
20 -6 -1 -9 -13 -21 -23 -26 -23 -6 0 -4 8 3 17 10 11 10 14 2 9 -13 -7 -16 1
-14 39 l1 20 -9 -20 c-8 -19 -12 -17 -50 24 -39 40 -44 42 -59 27 -16 -14 -19
-14 -29 3 -13 21 -2 43 22 47 9 1 20 5 23 8 3 4 -5 4 -19 2 -13 -2 -27 -5 -31
-5 -5 -1 -8 -8 -8 -16 0 -8 -5 -15 -11 -15 -5 0 -7 5 -3 12 4 7 3 8 -4 4 -17
-11 -32 26 -19 49 9 18 9 19 -7 6 -9 -8 -15 -19 -13 -25 3 -6 0 -19 -5 -30 -7
-12 -7 -16 0 -12 6 3 13 2 17 -4 4 -6 11 -8 16 -5 5 4 23 -9 39 -27 17 -18 31
-29 31 -25 1 4 2 12 3 19 0 6 7 13 15 16 8 3 11 0 7 -7 -4 -6 -2 -11 3 -11 6
0 11 -5 11 -12 0 -6 -3 -8 -7 -5 -3 4 -16 0 -29 -8 -21 -13 -25 -12 -68 21
-25 19 -51 32 -58 28 -7 -4 -8 -3 -4 4 4 7 4 17 0 23 -4 8 -9 7 -15 -2 -7 -11
-9 -11 -9 -1 0 7 -4 11 -9 8 -4 -3 -17 1 -27 9 -12 9 -14 14 -6 15 7 0 10 5 6
12 -4 7 -3 8 5 4 6 -4 8 -13 4 -19 -5 -8 -2 -8 9 1 12 10 18 9 28 -3 13 -16
35 -11 24 6 -3 5 -10 7 -15 4 -5 -4 -9 -1 -9 4 0 6 6 11 14 11 8 0 18 5 22 12
5 8 2 9 -9 5 -54 -22 -53 -22 -38 -4 12 15 10 18 -14 27 -24 9 -26 12 -14 28
13 15 12 16 -4 3 -13 -10 -15 -17 -6 -27 9 -11 7 -20 -5 -39 -17 -27 -31 -31
-41 -15 -4 6 -12 7 -18 3 -7 -4 -6 1 2 11 13 15 12 16 -18 11 -23 -4 -33 -1
-38 11 -4 10 -8 12 -12 5 -5 -7 -15 -5 -31 6 -14 10 -31 19 -37 20 -7 2 -21 5
-30 7 -10 2 -17 9 -15 15 1 6 -5 11 -14 11 -9 0 -12 -5 -8 -12 6 -10 5 -10 -8
-1 -8 7 -19 9 -23 5 -5 -4 -5 -2 -2 4 9 15 -18 25 -31 12 -7 -7 -17 -6 -31 1
-12 7 -21 9 -21 5 0 -3 -6 -2 -12 3 -7 6 -21 9 -31 8 -9 -2 -15 1 -12 5 3 5 1
11 -5 15 -5 3 -10 0 -10 -7 0 -8 -5 -5 -11 5 -8 14 -8 22 1 30 10 9 12 8 7 -5
-4 -12 -1 -16 13 -13 11 2 22 -1 25 -6 4 -5 11 -7 16 -3 5 3 7 10 3 15 -3 5
-9 7 -14 4 -5 -3 -11 -1 -15 5 -3 5 1 10 9 10 8 0 17 3 19 8 3 4 -5 7 -18 7
-13 0 -21 -4 -18 -9 3 -5 0 -6 -8 -4 -8 3 -13 11 -11 17 1 6 -2 11 -8 11 -5 0
-10 -5 -10 -11 0 -6 -6 -9 -14 -6 -7 3 -18 1 -23 -4 -6 -6 -19 -6 -35 0 -17 6
-29 6 -36 -1 -6 -6 -12 -6 -16 1 -4 6 -3 11 1 11 5 0 18 6 29 14 19 14 18 15
-3 13 -12 0 -20 -4 -17 -8 8 -14 -25 -17 -44 -3 -17 12 -21 12 -26 -2 -4 -12
-10 -13 -26 -4 -11 6 -25 8 -30 5 -5 -3 -19 -1 -31 6 -13 6 -19 7 -15 1 3 -6
2 -13 -4 -17 -9 -6 -14 8 -11 28 1 4 -8 3 -19 -3 -18 -10 -24 -7 -22 11 1 3
-6 6 -14 6 -11 0 -10 -5 5 -21z m-11 -25 c3 -10 0 -12 -11 -8 -9 3 -19 2 -22
-4 -9 -14 -25 -1 -19 15 7 17 46 15 52 -3z m55 6 c3 -8 0 -14 -7 -14 -7 0 -13
6 -13 14 0 7 4 13 8 13 4 0 9 -6 12 -13z m47 -1 c0 -2 -7 -7 -16 -10 -8 -3
-12 -2 -9 4 6 10 25 14 25 6z m40 0 c0 -3 -4 -8 -10 -11 -5 -3 -10 -1 -10 4 0
6 5 11 10 11 6 0 10 -2 10 -4z m219 -32 c-5 -6 -7 -18 -4 -26 4 -9 0 -15 -9
-15 -8 0 -12 6 -9 13 2 6 -1 15 -6 19 -16 9 -6 21 18 21 14 0 17 -4 10 -12z
m-605 -24 c-6 -6 -10 -3 -10 10 0 13 4 16 10 10 7 -7 7 -13 0 -20z m-338 -136
c0 -23 -7 -28 -35 -25 -8 2 -10 -2 -5 -11 5 -9 2 -8 -11 2 -17 14 -18 13 -12
-2 3 -10 1 -20 -6 -24 -7 -4 -9 -4 -5 1 11 12 -30 38 -45 29 -9 -6 -8 -3 1 8
8 9 19 15 27 12 7 -3 21 7 31 24 15 26 20 29 39 20 13 -6 21 -19 21 -34z
m1445 13 c-6 -8 -9 -17 -6 -21 3 -3 0 -2 -6 3 -12 10 -4 31 13 31 7 0 7 -4 -1
-13z m242 -162 c25 -18 33 -34 36 -69 1 -5 7 -3 15 3 10 8 16 8 25 -2 6 -8 8
-17 4 -20 -3 -4 -1 -7 5 -7 7 0 12 5 12 12 0 17 10 4 15 -20 5 -28 24 -61 25
-44 0 7 5 10 12 6 7 -4 8 -3 4 5 -4 6 -13 8 -19 5 -9 -5 -9 -4 0 6 13 15 38 2
38 -20 0 -8 -8 -20 -19 -26 -16 -10 -17 -12 -2 -17 9 -4 16 -1 16 6 0 7 5 4
11 -6 6 -9 14 -15 18 -12 5 2 16 -4 25 -14 15 -17 15 -19 0 -32 -13 -11 -18
-11 -21 -1 -3 6 -11 12 -18 12 -8 0 -16 4 -19 9 -4 5 2 7 13 4 10 -3 22 0 25
6 4 7 1 8 -8 5 -9 -3 -16 -1 -16 6 0 6 -4 9 -8 6 -11 -7 -37 11 -37 26 0 7 -8
12 -17 12 -10 -1 -16 3 -15 10 1 6 -4 10 -10 9 -7 -2 -12 3 -10 10 1 6 -4 11
-11 9 -8 -1 -11 2 -8 7 6 9 -21 37 -33 35 -3 -1 -21 10 -39 24 -26 20 -30 27
-21 39 9 10 9 17 2 24 -8 8 -13 7 -18 -2 -6 -8 -4 -10 6 -4 12 7 12 5 1 -6
-11 -12 -14 -12 -22 1 -8 12 -10 13 -10 1 0 -8 -3 -11 -6 -8 -11 10 14 34 34
33 10 0 30 -10 45 -21z m-2159 -183 c3 7 3 2 0 -11 -5 -18 -3 -22 7 -15 12 7
12 5 0 -9 -14 -17 -36 -14 -25 4 3 5 0 18 -8 27 -12 15 -11 16 4 4 13 -10 17
-10 22 0z m31 -2 c3 -5 1 -10 -4 -10 -6 0 -11 5 -11 10 0 6 2 10 4 10 3 0 8
-4 11 -10z m-230 -267 c-2 -21 -4 -44 -4 -52 -1 -22 -13 -5 -16 24 -2 14 1 25
6 25 5 0 8 3 8 8 -2 13 1 32 5 32 2 0 2 -17 1 -37z m2750 27 c3 -5 1 -10 -4
-10 -6 0 -11 5 -11 10 0 6 2 10 4 10 3 0 8 -4 11 -10z m-2776 -19 c0 -3 -4
-15 -8 -26 -5 -12 -3 -30 6 -48 11 -21 11 -27 1 -25 -7 2 -12 -2 -11 -9 2 -8
-4 -10 -15 -6 -15 6 -15 5 -3 -10 8 -10 11 -20 7 -24 -3 -3 -6 -1 -6 4 0 6 -6
10 -14 9 -19 -3 -47 -27 -41 -35 2 -4 -2 -8 -10 -8 -10 0 -11 5 -4 19 5 10 6
18 2 18 -4 0 2 7 14 15 15 11 20 24 18 49 -1 20 2 33 6 31 4 -3 15 -2 24 1 11
5 13 9 5 14 -14 9 -3 37 15 37 8 0 15 -3 14 -6z m2808 -32 c-14 -8 -16 -14 -6
-25 6 -7 15 -11 20 -8 5 3 12 -2 15 -10 3 -9 10 -14 14 -11 13 8 39 -29 35
-50 -2 -11 -4 -22 -5 -25 -1 -3 -2 -8 -2 -11 1 -7 -26 -5 -58 6 -24 7 -24 8
-5 15 19 8 19 8 -5 18 -20 9 -21 11 -6 11 11 1 16 4 12 9 -7 7 -11 8 -38 11
-9 1 -9 4 2 10 8 6 18 7 22 5 10 -6 11 10 1 19 -3 4 -12 2 -19 -4 -9 -8 -16
-5 -24 12 -9 16 -9 20 0 14 14 -9 52 24 43 39 -3 6 0 5 8 -2 12 -11 11 -15 -4
-23z m93 -184 c7 -9 8 -15 2 -15 -5 0 -12 7 -16 15 -3 8 -4 15 -2 15 2 0 9 -7
16 -15z m-3006 -3 c3 -5 -1 -9 -9 -9 -8 0 -12 4 -9 9 3 4 7 8 9 8 2 0 6 -4 9
-8z m3046 -61 c0 -8 -19 -37 -21 -31 0 3 -2 12 -4 21 -1 9 4 16 11 16 8 0 14
-3 14 -6z m16 -118 c-4 -9 1 -17 14 -20 24 -6 25 -16 5 -33 -8 -7 -12 -17 -8
-23 3 -6 1 -7 -5 -3 -7 4 -12 3 -12 -2 0 -6 6 -12 14 -15 8 -3 13 -14 12 -24
-2 -10 -6 -17 -9 -15 -4 1 -11 2 -16 2 -5 0 -12 7 -15 16 -3 8 -2 12 4 9 6 -3
10 -2 10 3 0 6 -7 13 -16 16 -8 3 -12 11 -9 16 4 6 1 17 -5 25 -7 8 -9 15 -5
15 4 0 2 7 -5 15 -7 9 -10 18 -6 22 3 3 6 1 6 -6 0 -9 5 -9 20 -1 11 6 17 16
14 22 -5 7 -2 8 5 4 7 -5 10 -15 7 -23z m-3131 -143 c4 -6 12 -7 18 -4 7 4 8
3 4 -2 -5 -5 -13 -10 -18 -10 -5 -1 -14 -2 -20 -3 -5 0 -7 -6 -4 -11 4 -6 10
-8 14 -6 4 3 8 -10 8 -28 0 -27 -4 -33 -16 -28 -14 5 -14 4 -1 -13 8 -10 10
-16 4 -12 -16 9 -25 -18 -16 -46 7 -19 8 -30 3 -53 0 -4 -8 -1 -16 6 -8 7 -12
16 -9 22 3 5 1 15 -5 22 -8 10 -7 16 3 25 9 8 14 25 12 47 -2 18 0 31 5 28 13
-7 11 10 -2 23 -8 8 -5 15 11 26 15 11 18 16 8 20 -9 4 -9 6 -1 6 6 1 15 -4
18 -9z m-5 -140 c0 -5 -4 -10 -10 -10 -5 0 -10 5 -10 10 0 6 5 10 10 10 6 0
10 -4 10 -10z m3205 -20 c3 -5 2 -10 -4 -10 -5 0 -13 5 -16 10 -3 6 -2 10 4
10 5 0 13 -4 16 -10z m-5 -121 c0 -5 -3 -9 -7 -10 -5 0 -16 -2 -25 -4 -15 -3
-16 0 -8 16 10 18 40 17 40 -2z m-3240 -45 c0 -8 -19 -13 -24 -6 -3 5 1 9 9 9
8 0 15 -2 15 -3z m-5 -34 c-3 -5 -11 -10 -16 -10 -6 0 -7 5 -4 10 3 6 11 10
16 10 6 0 7 -4 4 -10z m5 -120 c0 -5 -2 -10 -4 -10 -3 0 -8 5 -11 10 -3 6 -1
10 4 10 6 0 11 -4 11 -10z m6 -44 c1 -7 -5 -13 -12 -13 -16 0 -16 0 -8 22 7
17 17 13 20 -9z m72 -161 c4 -4 2 -5 -5 -1 -17 10 -26 -11 -13 -31 11 -17 11
-17 6 0 -3 9 -2 17 3 17 8 0 19 -28 27 -68 2 -10 -1 -11 -12 -1 -13 11 -14 9
-3 -15 9 -20 15 -23 22 -14 6 9 7 8 3 -4 -3 -11 0 -18 7 -18 8 0 7 -4 -3 -9
-8 -6 -18 -7 -22 -5 -4 3 -8 0 -8 -5 0 -6 -8 -3 -19 7 -15 14 -16 20 -6 37 12
21 9 49 -5 40 -5 -3 -7 6 -6 20 2 14 -3 30 -10 36 -8 6 -14 15 -14 20 0 10 47
5 58 -6z m3087 -95 c17 -19 17 -19 -4 -15 -18 3 -20 0 -17 -20 3 -17 1 -22 -9
-19 -14 6 -15 -12 -2 -32 3 -6 -2 -19 -13 -29 -11 -10 -17 -23 -13 -29 4 -6
-3 -2 -15 8 -21 18 -21 20 -6 38 10 10 14 18 9 18 -4 0 -2 6 4 13 6 8 7 18 3
22 -4 5 -1 5 7 0 10 -6 12 -3 7 13 -4 12 -1 26 9 36 20 20 18 20 40 -4z
m-2959 -251 c1 -5 2 -10 4 -11 1 -2 3 -10 5 -19 1 -9 11 -26 21 -37 23 -28 26
-48 7 -63 -12 -10 -16 -10 -24 2 -4 8 -6 21 -3 31 3 10 -4 22 -17 32 -13 9
-19 19 -15 23 4 4 11 1 16 -7 6 -8 10 -10 10 -4 0 17 -35 45 -46 37 -5 -5 0 2
10 15 18 21 29 22 32 1z m76 -169 c-5 -13 -4 -13 13 0 11 9 16 10 11 3 -4 -8
-2 -13 6 -13 10 0 10 -2 -1 -9 -22 -14 -48 8 -45 38 3 37 4 39 13 16 5 -11 6
-27 3 -35z m2695 42 c21 17 28 0 9 -21 -10 -11 -24 -17 -32 -14 -8 3 -14 2
-13 -3 1 -5 0 -13 -1 -19 -1 -5 -3 -17 -4 -25 0 -8 -6 -14 -12 -13 -7 1 -20
-7 -29 -17 -11 -12 -14 -20 -7 -21 27 -3 31 -4 36 -11 3 -5 3 -6 -1 -3 -3 3
-13 -1 -21 -8 -8 -6 -25 -12 -36 -12 -12 0 -21 -5 -21 -12 0 -25 -21 -35 -36
-16 -7 10 -9 15 -5 11 5 -5 14 2 21 15 7 14 18 21 30 19 16 -3 17 -2 6 12 -13
15 -8 21 13 17 5 -1 6 5 3 13 -4 11 -1 13 11 9 15 -6 16 -5 2 12 -8 10 -10 16
-4 12 11 -6 29 19 26 36 -1 4 3 6 10 5 11 -3 13 2 17 34 1 9 4 9 13 0 8 -8 15
-9 25 0z m-2530 -227 c-6 -15 8 -31 16 -18 2 5 2 3 1 -4 -2 -7 1 -15 6 -18 6
-4 10 -12 10 -18 0 -7 -4 -6 -10 3 -8 13 -10 13 -10 1 0 -11 -4 -9 -14 4 -8
11 -12 23 -10 27 2 4 0 9 -6 13 -12 7 -4 25 12 25 5 0 8 -7 5 -15z m-47 -15
c0 -5 -5 -10 -11 -10 -5 0 -7 5 -4 10 3 6 8 10 11 10 2 0 4 -4 4 -10z m2384
-11 c4 6 12 9 17 6 15 -10 10 -23 -8 -21 -10 0 -17 -5 -15 -11 1 -7 -2 -13 -8
-13 -5 0 -28 -18 -50 -40 -22 -22 -40 -34 -40 -27 -1 6 -7 1 -15 -13 -9 -15
-14 -19 -15 -10 0 12 -2 12 -9 2 -4 -8 -12 -14 -17 -15 -5 -1 -9 -6 -10 -12
-2 -24 -18 -46 -30 -41 -7 3 -26 -11 -43 -31 -17 -20 -34 -33 -37 -30 -4 4
-20 -5 -36 -18 -34 -29 -41 -30 -58 -10 -10 12 -6 18 26 37 22 13 43 23 47 23
4 0 11 6 16 13 4 7 17 15 27 16 10 2 19 9 19 17 0 8 6 14 13 14 7 0 17 7 22
15 5 8 13 15 17 15 4 0 29 21 55 46 34 33 48 42 52 32 4 -9 1 -11 -6 -7 -7 4
-8 3 -4 -5 12 -19 25 -2 20 27 -3 17 -1 22 4 14 7 -10 12 -5 22 17 11 28 14
29 25 15 8 -12 14 -14 19 -5z m-1919 -299 c-3 -5 -1 -11 5 -15 5 -3 10 -2 10
4 0 5 14 3 31 -6 16 -8 28 -17 25 -20 -2 -2 -13 0 -24 6 -12 6 -24 11 -28 11
-12 0 14 -23 28 -26 7 -1 22 -6 32 -10 14 -5 17 -4 12 4 -4 7 -2 12 4 12 7 0
9 -8 5 -19 -4 -15 0 -18 22 -17 16 0 31 5 35 11 5 6 8 5 8 -3 0 -7 4 -11 8 -8
5 3 8 -5 7 -17 -1 -12 3 -25 9 -29 8 -6 6 -11 -4 -18 -19 -12 -33 -13 -26 -1
8 12 -4 42 -14 36 -5 -3 -15 1 -23 10 -13 13 -16 13 -21 -2 -6 -14 -8 -14 -25
1 -13 12 -20 14 -23 5 -2 -6 -16 5 -32 25 -21 28 -31 34 -41 26 -9 -8 -17 -3
-30 17 -18 28 -18 28 1 11 22 -19 42 -12 38 15 -1 9 2 15 7 11 5 -3 7 -9 4
-14z m1253 -117 c-12 -15 -11 -15 9 -5 24 13 41 0 20 -15 -25 -20 -40 -26 -33
-15 4 7 3 12 -2 12 -5 0 -12 8 -14 18 -4 12 1 18 14 19 17 2 18 0 6 -14z m-21
-38 c-2 -5 -22 -10 -45 -10 -37 -1 -40 1 -30 20 14 27 23 34 15 13 -4 -13 -2
-15 10 -11 10 4 14 2 10 -4 -4 -7 -1 -10 8 -9 9 1 15 5 15 9 0 4 0 13 0 20 0
9 -3 8 -9 -2 -5 -8 -11 -9 -15 -3 -3 6 0 12 6 15 15 5 40 -22 35 -38z m-847
20 c8 5 11 4 6 -3 -3 -6 -2 -13 3 -16 5 -4 13 -2 16 4 5 8 11 8 20 0 8 -7 19
-9 25 -5 5 3 13 -1 16 -10 6 -13 8 -14 15 -3 7 10 9 10 9 1 0 -7 5 -13 11 -13
5 0 7 6 3 13 -5 9 -4 9 6 0 11 -10 17 -10 29 0 14 10 14 10 4 -4 -16 -20 -5
-32 13 -14 16 16 54 8 71 -14 10 -14 12 -14 18 1 7 17 45 21 45 5 0 -5 6 -4
14 2 18 15 45 -14 28 -31 -8 -8 -13 -7 -18 6 -6 16 -7 16 -19 0 -15 -21 -55
-26 -62 -8 -3 7 -16 11 -33 9 -16 -2 -32 1 -36 7 -4 7 -9 6 -15 -3 -6 -11 -12
-10 -28 5 -12 11 -25 15 -33 10 -35 -22 -119 0 -102 27 7 12 -10 11 -22 -1 -6
-6 -10 2 -11 22 0 18 2 25 7 18 4 -7 13 -9 20 -5z"/>
<path d="M1165 3352 c-6 -4 -19 -18 -30 -32 -11 -13 -13 -19 -5 -13 8 6 20 12
25 13 6 1 9 7 7 14 -1 6 4 3 12 -7 11 -15 15 -15 19 -3 7 17 -14 38 -28 28z"/>
<path d="M2870 3165 c-9 -11 -6 -16 12 -26 13 -7 29 -19 36 -28 11 -13 11 -12
1 9 -7 14 -12 26 -11 28 14 19 -22 36 -38 17z m31 -12 c12 -16 12 -17 -2 -6
-9 7 -20 9 -24 5 -5 -4 -5 -1 -1 6 9 16 11 15 27 -5z"/>
<path d="M2946 3112 c-3 -5 11 -24 31 -43 24 -22 32 -26 25 -13 -6 12 -9 24
-6 27 3 3 -3 4 -13 4 -9 -1 -18 3 -18 10 0 16 -12 26 -19 15z"/>
<path d="M3096 2961 c-4 -5 -2 -12 3 -15 5 -4 12 -2 15 3 4 5 2 12 -3 15 -5 4
-12 2 -15 -3z"/>
<path d="M469 2685 c-1 -3 -2 -8 -3 -12 -1 -5 -5 -14 -9 -20 -5 -7 -5 -13 -1
-13 4 0 -1 -10 -12 -22 -12 -14 -13 -18 -3 -10 9 6 19 8 23 4 4 -4 6 -2 4 5
-1 6 5 18 15 25 11 9 16 20 11 31 -6 16 -22 24 -25 12z m21 -25 c0 -4 -7 -11
-16 -14 -13 -5 -14 -4 -6 7 7 8 8 18 4 22 -4 5 -1 5 6 1 6 -4 12 -11 12 -16z"/>
<path d="M3328 2655 c-4 -5 -4 -13 0 -19 4 -6 7 -14 8 -18 1 -5 3 -10 4 -13 2
-5 6 -18 9 -31 0 -4 8 -1 16 6 8 7 12 16 9 21 -3 5 0 9 7 9 8 0 8 4 -1 15 -7
9 -19 14 -26 11 -7 -3 -14 2 -16 10 -2 9 -6 13 -10 9z m39 -45 c-2 -11 -7 -23
-12 -27 -4 -5 -5 -3 -1 4 3 6 2 14 -4 18 -12 7 -4 25 11 25 5 0 8 -9 6 -20z"/>
<path d="M3434 2318 c1 -7 5 -19 9 -25 5 -7 5 -19 1 -25 -5 -8 -1 -7 10 2 11
8 14 16 7 18 -6 2 -9 8 -6 12 3 5 13 7 23 4 14 -5 14 -4 2 4 -8 6 -18 8 -22 6
-4 -3 -8 0 -8 5 0 6 -4 11 -9 11 -5 0 -8 -6 -7 -12z"/>
<path d="M3465 2231 c-3 -5 -2 -12 3 -15 5 -3 9 1 9 9 0 17 -3 19 -12 6z"/>
<path d="M312 2148 c7 -15 15 -23 17 -17 2 6 -4 18 -13 27 -15 15 -15 15 -4
-10z"/>
<path d="M285 2040 c3 -5 8 -10 11 -10 2 0 4 5 4 10 0 6 -5 10 -11 10 -5 0 -7
-4 -4 -10z"/>
<path d="M295 2011 c-3 -5 -2 -12 3 -15 5 -3 9 1 9 9 0 17 -3 19 -12 6z"/>
<path d="M340 1464 c0 -2 9 -8 20 -14 15 -8 18 -8 14 3 -4 11 -34 21 -34 11z"/>
<path d="M355 1401 c-3 -6 -1 -11 5 -11 6 0 9 -4 6 -8 -3 -5 1 -9 9 -9 12 0
12 3 3 16 -7 9 -13 17 -14 19 -1 2 -5 -1 -9 -7z"/>
<path d="M3420 1415 c-9 -11 -10 -19 -3 -26 8 -8 11 -6 10 7 -1 11 4 18 11 16
8 -1 11 2 7 8 -8 13 -10 13 -25 -5z"/>
<path d="M3395 1350 c-3 -5 -3 -10 1 -10 4 0 -1 -9 -10 -19 -10 -10 -13 -22
-8 -25 5 -3 17 3 26 13 12 13 14 21 6 26 -5 3 -8 11 -5 16 4 5 4 9 1 9 -3 0
-8 -4 -11 -10z m15 -24 c0 -2 -8 -10 -17 -17 -16 -13 -17 -12 -4 4 13 16 21
21 21 13z"/>
<path d="M476 1171 c-3 -5 2 -15 12 -22 15 -12 16 -12 5 2 -7 9 -10 19 -6 22
3 4 4 7 0 7 -3 0 -8 -4 -11 -9z"/>
<path d="M514 1093 c12 -15 15 -23 7 -23 -7 0 -11 -5 -9 -11 5 -15 21 -12 24
5 1 8 -8 23 -19 33 l-22 18 19 -22z"/>
<path d="M3265 1030 c-3 -5 -12 -7 -20 -3 -8 3 -15 3 -15 0 0 -13 30 -14 40
-1 7 8 10 14 7 14 -3 0 -8 -4 -12 -10z"/>
<path d="M3212 987 c-8 -9 -8 -17 0 -27 8 -13 9 -12 5 1 -3 9 0 22 6 28 6 6 8
11 5 11 -3 0 -10 -6 -16 -13z"/>
<path d="M3159 907 c6 -8 7 -18 3 -22 -4 -5 -1 -5 6 -1 10 6 10 11 1 22 -6 8
-14 14 -16 14 -3 0 0 -6 6 -13z"/>
<path d="M3044 782 c4 -7 3 -12 -1 -12 -5 0 -14 -9 -21 -20 -12 -19 -11 -20 8
-8 24 16 33 35 18 44 -7 4 -8 3 -4 -4z"/>
<path d="M2947 696 c-18 -15 -23 -23 -13 -23 8 0 18 7 20 14 3 8 10 12 15 8 5
-3 12 -1 15 4 13 20 -10 18 -37 -3z"/>
<path d="M2872 629 c-7 -11 -18 -17 -24 -13 -6 4 -8 3 -5 -3 4 -6 0 -16 -8
-23 -8 -7 -15 -9 -15 -4 0 4 -10 -2 -22 -14 -13 -11 -26 -21 -31 -21 -19 -1
-67 -33 -62 -41 10 -15 21 -12 54 16 17 14 31 22 31 18 0 -4 17 9 38 29 21 21
41 35 44 32 9 -9 27 20 20 32 -5 9 -11 6 -20 -8z m-52 -53 c0 -2 -8 -10 -17
-17 -16 -13 -17 -12 -4 4 13 16 21 21 21 13z m-69 -46 c-13 -11 -28 -20 -35
-20 -6 0 3 9 19 19 39 25 46 25 16 1z"/>
<path d="M1172 444 c15 -16 37 -30 49 -31 25 -2 12 17 -14 21 -9 1 -26 11 -39
21 -17 14 -15 11 4 -11z"/>
<path d="M1310 401 c0 -6 4 -13 10 -16 6 -3 7 1 4 9 -7 18 -14 21 -14 7z"/>
<path d="M1561 327 c-9 -11 -7 -17 6 -28 13 -11 17 -11 20 -1 3 6 10 9 16 5
19 -12 36 -12 44 -1 3 7 1 8 -5 4 -6 -3 -15 2 -21 11 -7 13 -10 14 -11 4 0
-11 -4 -11 -19 3 -15 14 -20 14 -30 3z m23 -18 c-3 -5 -10 -7 -15 -3 -5 3 -7
10 -3 15 3 5 10 7 15 3 5 -3 7 -10 3 -15z"/>
<path d="M1670 306 c0 -2 8 -10 18 -17 15 -13 16 -12 3 4 -13 16 -21 21 -21
13z"/>
<path d="M1725 300 c-7 -12 -7 -12 27 -14 15 -1 24 2 21 6 -2 5 -14 6 -25 2
-14 -4 -18 -2 -14 5 4 6 5 11 2 11 -3 0 -8 -4 -11 -10z"/>
<path d="M1808 282 c-8 -10 -8 -13 -1 -9 6 4 14 3 18 -3 7 -11 25 -4 25 10 0
16 -29 18 -42 2z"/>
<path d="M1876 287 c3 -10 9 -15 12 -12 3 3 0 11 -7 18 -10 9 -11 8 -5 -6z"/>
<path d="M1934 3559 c-4 -7 -3 -9 4 -5 5 3 13 0 15 -6 4 -9 6 -10 6 -1 1 17
-16 25 -25 12z"/>
<path d="M2085 3559 c-4 -6 -5 -12 -2 -15 2 -3 7 2 10 11 7 17 1 20 -8 4z"/>
<path d="M2117 3556 c-4 -11 -1 -13 10 -9 12 5 14 3 8 -7 -5 -9 -4 -11 4 -6 9
6 9 11 0 22 -14 17 -16 17 -22 0z"/>
<path d="M2177 3555 c-4 -8 -3 -16 1 -19 4 -3 9 4 9 15 2 23 -3 25 -10 4z"/>
<path d="M1655 3550 c-7 -12 20 -24 34 -16 5 3 12 1 14 -4 3 -6 4 -5 3 2 -2 7
-13 12 -26 10 -14 -2 -20 0 -16 7 4 6 5 11 2 11 -3 0 -8 -5 -11 -10z"/>
<path d="M2272 3522 c-1 -15 -2 -35 -3 -44 -1 -24 -19 -34 -20 -11 -1 10 -1
21 0 26 0 4 -4 7 -10 7 -6 0 -9 -7 -6 -15 4 -8 2 -17 -4 -20 -14 -9 -1 -24 19
-21 9 2 20 -2 24 -7 4 -7 11 -7 20 1 11 9 19 8 34 -3 22 -14 30 -11 54 19 9
12 10 17 3 12 -8 -4 -13 -2 -13 6 0 11 -2 11 -9 0 -6 -11 -11 -10 -25 3 -9 9
-14 21 -11 26 4 5 1 9 -5 9 -7 0 -9 -8 -5 -19 3 -10 -1 -24 -10 -31 -14 -12
-16 -10 -12 11 2 13 2 18 0 11 -3 -7 -9 -10 -14 -6 -5 3 -7 10 -4 15 10 16 14
48 6 53 -4 3 -8 -7 -9 -22z m94 -64 c5 4 2 -1 -5 -10 -10 -14 -16 -15 -31 -6
-24 15 -15 31 9 18 10 -5 22 -6 27 -2z"/>
<path d="M2330 3540 c0 -5 5 -10 11 -10 5 0 7 5 4 10 -3 6 -8 10 -11 10 -2 0
-4 -4 -4 -10z"/>
<path d="M1387 3519 c7 -7 15 -10 18 -7 3 3 -2 9 -12 12 -14 6 -15 5 -6 -5z"/>
<path d="M1473 3515 c0 -8 4 -15 9 -15 4 0 8 4 8 9 0 6 -4 12 -8 15 -5 3 -9
-1 -9 -9z"/>
<path d="M1620 3526 c0 -2 7 -6 15 -10 8 -3 15 -1 15 4 0 6 -7 10 -15 10 -8 0
-15 -2 -15 -4z"/>
<path d="M2090 3520 c0 -5 5 -10 10 -10 6 0 10 5 10 10 0 6 -4 10 -10 10 -5 0
-10 -4 -10 -10z"/>
<path d="M2380 3486 c7 -7 13 -7 20 0 6 6 3 10 -10 10 -13 0 -16 -4 -10 -10z"/>
<path d="M1426 3476 c7 -18 13 -20 34 -6 8 5 11 13 6 17 -5 4 -11 2 -13 -5 -4
-10 -8 -10 -19 -1 -12 10 -13 9 -8 -5z"/>
<path d="M2024 3483 c4 -4 16 -8 28 -10 28 -4 18 6 -12 12 -12 2 -20 1 -16 -2z"/>
<path d="M1109 3463 c-13 -16 -12 -17 4 -4 9 7 17 15 17 17 0 8 -8 3 -21 -13z"/>
<path d="M1356 3467 c3 -10 9 -15 12 -12 3 3 0 11 -7 18 -10 9 -11 8 -5 -6z"/>
<path d="M1190 3460 c0 -5 5 -10 11 -10 5 0 7 5 4 10 -3 6 -8 10 -11 10 -2 0
-4 -4 -4 -10z"/>
<path d="M2401 3456 c-20 -24 -22 -54 -3 -51 9 1 20 -3 24 -9 5 -7 8 -6 8 4 0
10 5 7 16 -8 18 -26 44 -29 44 -5 0 16 14 10 16 -8 1 -5 2 -13 3 -19 0 -5 11
-8 24 -6 12 2 21 9 20 15 -2 6 2 11 7 11 6 0 11 -7 11 -15 1 -8 2 -20 3 -27 2
-16 23 -21 32 -7 4 7 3 9 -3 6 -6 -4 -14 0 -17 9 -9 24 -7 28 9 14 8 -7 15 -8
15 -3 0 5 -12 15 -26 22 -22 10 -30 9 -47 -6 -19 -18 -20 -17 -8 4 6 12 16 25
21 28 6 3 10 11 10 17 0 5 -9 0 -19 -13 -11 -13 -23 -21 -27 -16 -4 4 1 14 12
23 10 8 13 12 5 8 -46 -23 -117 0 -74 25 10 6 14 11 9 11 -5 0 -18 -8 -29 -17
-19 -17 -20 -17 -14 -1 8 22 -7 32 -22 14z m52 -48 c9 -14 14 -15 27 -5 13 11
13 10 1 -6 -15 -18 -15 -18 -28 0 -8 10 -22 18 -33 18 -10 0 -22 3 -26 8 -4 4
5 6 21 5 15 -2 33 -10 38 -20z"/>
<path d="M2496 3458 c3 -4 11 -5 19 -1 21 7 19 12 -4 10 -11 0 -18 -5 -15 -9z"/>
<path d="M1287 3436 c-4 -10 -1 -13 9 -9 15 6 19 23 5 23 -5 0 -11 -7 -14 -14z"/>
<path d="M2471 3440 c-9 -5 -4 -7 13 -7 29 0 32 2 13 10 -8 3 -20 2 -26 -3z"/>
<path d="M2574 3408 c3 -15 26 -23 26 -8 0 6 -4 9 -9 6 -5 -4 -12 -1 -14 4 -3
6 -4 5 -3 -2z"/>
<path d="M1086 3402 c-3 -5 1 -9 9 -9 8 0 12 4 9 9 -3 4 -7 8 -9 8 -2 0 -6 -4
-9 -8z"/>
<path d="M1135 3400 c-3 -5 -1 -10 4 -10 6 0 11 5 11 10 0 6 -2 10 -4 10 -3 0
-8 -4 -11 -10z"/>
<path d="M1186 3398 c3 -4 9 -8 15 -8 5 0 9 4 9 8 0 5 -7 9 -15 9 -8 0 -12 -4
-9 -9z"/>
<path d="M2670 3381 c0 -6 4 -12 8 -15 5 -3 9 1 9 9 0 8 -4 15 -9 15 -4 0 -8
-4 -8 -9z"/>
<path d="M2710 3380 c0 -5 5 -10 11 -10 5 0 7 5 4 10 -3 6 -8 10 -11 10 -2 0
-4 -4 -4 -10z"/>
<path d="M1306 3368 c3 -5 10 -6 15 -3 13 9 11 12 -6 12 -8 0 -12 -4 -9 -9z"/>
<path d="M1019 3353 c-13 -17 -13 -17 6 -3 11 8 22 16 24 17 2 2 0 3 -6 3 -6
0 -17 -8 -24 -17z"/>
<path d="M905 3340 c-3 -6 1 -7 9 -4 18 7 21 14 7 14 -6 0 -13 -4 -16 -10z"/>
<path d="M2776 3333 c-4 -5 -13 -8 -18 -8 -6 0 -12 -6 -14 -13 -1 -7 0 -8 3
-2 2 5 8 8 13 5 4 -3 13 2 20 10 13 15 9 21 -4 8z"/>
<path d="M999 3313 c-12 -14 -12 -16 0 -9 9 6 12 4 9 -5 -3 -8 -17 -13 -31
-13 -15 1 -24 -2 -21 -7 2 -4 12 -5 22 -2 9 4 -1 -12 -22 -34 -22 -23 -45 -39
-52 -36 -6 2 -15 -1 -19 -6 -9 -15 -27 -3 -19 12 4 7 3 8 -1 4 -11 -9 -16 -37
-7 -36 19 3 25 -2 13 -10 -11 -7 -9 -11 9 -21 l22 -12 -33 -29 c-24 -22 -19
-19 19 8 29 21 50 43 48 50 -6 14 20 37 33 29 9 -6 52 29 59 47 10 30 9 47 -4
58 -8 6 -11 15 -8 20 9 16 -3 10 -17 -8z m27 -38 c-1 -8 -12 -29 -25 -46 -16
-22 -26 -27 -35 -20 -8 7 -16 4 -25 -10 -7 -12 -18 -19 -25 -16 -7 3 -12 -4
-13 -17 0 -11 1 -15 4 -8 3 6 9 12 15 12 6 0 5 -6 -2 -15 -14 -17 -32 -7 -36
20 -2 13 8 19 28 16 4 0 29 22 55 49 50 52 63 60 59 35z"/>
<path d="M992 3245 c-11 -13 -23 -21 -27 -17 -5 4 -5 1 -1 -5 10 -18 12 -17
36 17 26 36 19 40 -8 5z"/>
<path d="M955 3310 c-3 -5 -1 -10 4 -10 6 0 11 5 11 10 0 6 -2 10 -4 10 -3 0
-8 -4 -11 -10z"/>
<path d="M887 3299 c7 -7 15 -10 18 -7 3 3 -2 9 -12 12 -14 6 -15 5 -6 -5z"/>
<path d="M2646 3302 c-3 -5 1 -9 9 -9 8 0 12 4 9 9 -3 4 -7 8 -9 8 -2 0 -6 -4
-9 -8z"/>
<path d="M933 3278 c3 -9 -1 -19 -9 -22 -9 -3 -13 -10 -10 -15 4 -5 1 -12 -4
-14 -7 -4 -6 -5 1 -3 6 1 9 5 7 8 -2 4 5 13 14 20 13 10 15 17 7 28 -9 13 -10
13 -6 -2z"/>
<path d="M2820 3281 c-8 -6 -18 -7 -22 -5 -4 3 -8 0 -8 -5 0 -15 13 -14 36 4
21 16 17 20 -6 6z"/>
<path d="M2875 3280 c-3 -5 -1 -10 4 -10 6 0 11 5 11 10 0 6 -2 10 -4 10 -3 0
-8 -4 -11 -10z"/>
<path d="M2719 3257 c7 -9 17 -15 21 -12 4 3 10 -2 13 -9 3 -8 16 -20 29 -27
l23 -12 -20 24 c-11 13 -21 25 -21 27 -1 2 -8 4 -16 6 -7 1 -20 6 -28 11 -13
8 -13 7 -1 -8z"/>
<path d="M2857 3259 c7 -7 15 -10 18 -7 3 3 -2 9 -12 12 -14 6 -15 5 -6 -5z"/>
<path d="M860 3246 c0 -2 8 -10 18 -17 15 -13 16 -12 3 4 -13 16 -21 21 -21
13z"/>
<path d="M2895 3240 c3 -5 8 -10 11 -10 2 0 4 5 4 10 0 6 -5 10 -11 10 -5 0
-7 -4 -4 -10z"/>
<path d="M2884 3221 c20 -22 26 -25 26 -13 0 4 -10 13 -22 21 -23 14 -23 14
-4 -8z"/>
<path d="M815 3220 c-3 -5 -1 -10 4 -10 6 0 11 5 11 10 0 6 -2 10 -4 10 -3 0
-8 -4 -11 -10z"/>
<path d="M2950 3180 c-9 -6 -10 -10 -3 -10 6 0 15 5 18 10 8 12 4 12 -15 0z"/>
<path d="M2986 3178 c3 -4 15 -13 27 -18 20 -10 20 -10 5 3 -10 8 -16 16 -13
19 3 2 -2 5 -10 5 -8 0 -12 -4 -9 -9z"/>
<path d="M801 3161 c-8 -5 -9 -11 -3 -15 5 -3 12 1 16 9 6 17 6 18 -13 6z"/>
<path d="M710 3136 c0 -2 8 -10 18 -17 15 -13 16 -12 3 4 -13 16 -21 21 -21
13z"/>
<path d="M3020 3121 c0 -11 4 -22 9 -25 4 -3 6 6 3 19 -5 30 -12 33 -12 6z"/>
<path d="M676 3113 c-6 -14 -5 -15 5 -6 7 7 10 15 7 18 -3 3 -9 -2 -12 -12z"/>
<path d="M750 3100 c0 -5 5 -10 10 -10 6 0 10 5 10 10 0 6 -4 10 -10 10 -5 0
-10 -4 -10 -10z"/>
<path d="M630 3086 c0 -2 7 -7 16 -10 8 -3 12 -2 9 4 -6 10 -25 14 -25 6z"/>
<path d="M676 3082 c-3 -5 1 -9 9 -9 8 0 12 4 9 9 -3 4 -7 8 -9 8 -2 0 -6 -4
-9 -8z"/>
<path d="M713 3052 c0 -12 5 -22 9 -22 11 0 10 12 -2 30 -7 12 -9 10 -7 -8z"/>
<path d="M740 3038 c0 -6 3 -8 7 -5 3 4 12 2 20 -5 11 -8 12 -7 7 6 -7 18 -34
22 -34 4z"/>
<path d="M632 3018 c2 -7 -2 -12 -8 -11 -6 1 -11 -5 -11 -12 0 -10 4 -12 12
-5 9 7 17 5 26 -7 12 -15 12 -16 -6 -10 -18 6 -18 5 3 -12 12 -11 18 -22 13
-25 -5 -4 -12 -2 -16 4 -3 5 -16 15 -28 20 -16 8 -14 5 6 -10 15 -12 27 -26
27 -32 0 -6 -9 -3 -19 6 -11 10 -28 16 -38 13 -15 -4 -14 -5 4 -6 22 -1 36
-15 40 -41 1 -9 -5 -6 -15 8 -15 20 -20 21 -36 9 -17 -12 -17 -14 -1 -27 14
-12 18 -12 26 1 7 11 9 10 9 -5 0 -14 -5 -17 -22 -12 -13 4 -30 9 -38 10 -8 2
-14 9 -12 16 1 6 -2 9 -7 6 -7 -5 -8 -41 -1 -41 1 0 3 -7 5 -16 2 -12 -4 -16
-23 -16 -24 0 -25 0 -7 13 10 8 14 14 8 14 -6 0 -16 -6 -22 -14 -17 -20 16
-39 41 -25 10 6 22 8 27 5 11 -7 33 18 24 27 -3 4 -1 7 5 7 7 0 12 -6 13 -12
0 -7 5 -3 11 10 6 12 15 22 21 22 5 0 7 6 4 13 -3 7 1 21 9 32 8 10 14 13 14
7 0 -7 5 -12 12 -12 9 0 9 3 1 11 -9 9 -7 18 5 37 11 17 12 23 4 18 -15 -9
-55 21 -47 35 3 4 1 11 -5 14 -6 4 -9 1 -8 -7z m-27 -127 c-3 -6 -11 -8 -17
-5 -6 4 -5 9 3 15 16 10 23 4 14 -10z m-35 -33 c0 -5 4 -7 9 -4 5 4 8 -1 7 -9
-1 -9 -5 -15 -9 -15 -4 0 -12 0 -19 0 -6 0 -8 3 -5 7 4 3 2 11 -3 18 -7 8 -5
12 5 12 8 0 15 -4 15 -9z"/>
<path d="M3190 2985 c0 -7 30 -13 34 -7 3 4 -4 9 -15 9 -10 1 -19 0 -19 -2z"/>
<path d="M551 2947 c-8 -10 -7 -14 2 -14 8 0 14 6 14 14 0 7 -1 13 -2 13 -2 0
-8 -6 -14 -13z"/>
<path d="M3259 2913 c-13 -16 -12 -17 4 -4 16 13 21 21 13 21 -2 0 -10 -8 -17
-17z"/>
<path d="M3293 2909 c-2 -23 3 -25 10 -4 4 8 3 16 -1 19 -4 3 -9 -4 -9 -15z"/>
<path d="M3123 2905 c0 -8 4 -12 9 -9 5 3 6 10 3 15 -9 13 -12 11 -12 -6z"/>
<path d="M493 2890 c-1 -11 2 -22 6 -24 4 -3 7 4 6 14 -2 27 -10 33 -12 10z"/>
<path d="M3177 2841 c3 -12 11 -17 19 -14 8 3 14 6 12 7 -2 1 -11 7 -20 14
-14 11 -16 10 -11 -7z"/>
<path d="M3300 2816 c0 -2 7 -7 16 -10 8 -3 12 -2 9 4 -6 10 -25 14 -25 6z"/>
<path d="M3300 2785 c0 -8 29 -12 39 -5 9 5 4 8 -13 8 -14 0 -26 -2 -26 -3z"/>
<path d="M3375 2780 c-3 -5 -1 -10 4 -10 6 0 11 5 11 10 0 6 -2 10 -4 10 -3 0
-8 -4 -11 -10z"/>
<path d="M436 2755 c-3 -8 0 -17 6 -21 6 -4 8 -3 4 4 -3 5 -1 12 6 14 8 3 9 6
1 11 -6 4 -13 0 -17 -8z"/>
<path d="M3335 2761 c-3 -5 -2 -12 3 -15 5 -3 9 1 9 9 0 17 -3 19 -12 6z"/>
<path d="M406 2718 c3 -4 9 -8 15 -8 5 0 9 4 9 8 0 5 -7 9 -15 9 -8 0 -12 -4
-9 -9z"/>
<path d="M3376 2698 c3 -5 10 -6 15 -3 13 9 11 12 -6 12 -8 0 -12 -4 -9 -9z"/>
<path d="M3395 2681 c-3 -5 -2 -12 3 -15 5 -3 9 1 9 9 0 17 -3 19 -12 6z"/>
<path d="M378 2598 c4 -16 2 -19 -8 -13 -9 5 -11 4 -6 -4 4 -6 12 -9 17 -6 12
8 12 32 0 39 -5 4 -7 -4 -3 -16z"/>
<path d="M3417 2583 c-10 -9 -9 -33 1 -33 4 0 8 9 9 20 2 21 0 24 -10 13z"/>
<path d="M324 2563 c4 -4 19 -9 34 -11 35 -4 25 5 -12 12 -16 3 -25 2 -22 -1z"/>
<path d="M3450 2556 c4 -4 16 -4 26 2 16 9 14 10 -8 9 -15 -1 -23 -6 -18 -11z"/>
<path d="M3356 2531 c-4 -5 -2 -12 3 -15 5 -4 12 -2 15 3 4 5 2 12 -3 15 -5 4
-12 2 -15 -3z"/>
<path d="M330 2526 c0 -2 7 -7 16 -10 8 -3 12 -2 9 4 -6 10 -25 14 -25 6z"/>
<path d="M294 2498 c-4 -7 -4 -10 1 -6 4 4 15 2 24 -5 14 -11 14 -10 2 6 -16
20 -18 21 -27 5z"/>
<path d="M335 2485 c0 -13 3 -21 8 -18 4 2 7 10 7 18 0 8 -3 16 -7 18 -5 3 -8
-5 -8 -18z"/>
<path d="M3481 2476 c-9 -11 -9 -16 1 -22 7 -4 10 -4 6 1 -4 4 -3 14 3 22 6 7
9 13 6 13 -2 0 -10 -6 -16 -14z"/>
<path d="M369 2443 c-13 -16 -12 -17 3 -5 13 10 17 10 21 0 2 -7 7 -10 11 -7
4 3 0 11 -7 18 -11 9 -17 7 -28 -6z"/>
<path d="M3470 2420 c-12 -7 -10 -9 7 -7 12 0 19 5 17 9 -6 10 -6 10 -24 -2z"/>
<path d="M274 2409 c-3 -6 -2 -15 3 -20 5 -5 9 -1 9 11 0 23 -2 24 -12 9z"/>
<path d="M379 2395 c-12 -45 -20 -55 -40 -45 -15 8 -17 7 -13 -5 5 -11 2 -13
-10 -9 -9 3 -13 11 -9 17 4 6 1 7 -7 2 -10 -6 -10 -11 3 -20 9 -7 13 -16 9
-20 -4 -5 -2 -5 5 -1 6 3 14 2 18 -3 3 -6 12 -8 21 -4 12 5 12 7 -3 19 -17 12
-17 13 3 8 13 -4 21 -1 22 8 0 7 3 23 6 36 2 12 3 22 0 22 -2 0 -5 -2 -5 -5z"/>
<path d="M3504 2369 c1 -7 10 -13 19 -15 9 -1 15 2 11 7 -3 5 -9 7 -14 4 -4
-3 -11 0 -13 5 -3 6 -4 5 -3 -1z"/>
<path d="M275 2321 c-6 -11 13 -26 22 -17 4 3 1 6 -6 6 -7 0 -9 5 -6 10 3 6 4
10 1 10 -3 0 -7 -4 -11 -9z"/>
<path d="M3546 2302 c-3 -5 1 -9 9 -9 8 0 12 4 9 9 -3 4 -7 8 -9 8 -2 0 -6 -4
-9 -8z"/>
<path d="M3505 2279 c-4 -6 -4 -13 -1 -16 3 -4 6 -1 6 6 0 8 6 11 16 7 8 -3
12 -2 9 4 -8 13 -22 13 -30 -1z"/>
<path d="M215 2271 c-3 -5 -2 -12 3 -15 5 -3 9 1 9 9 0 17 -3 19 -12 6z"/>
<path d="M3534 2243 c1 -12 6 -26 10 -30 4 -5 6 -1 4 7 -2 9 4 14 14 14 10 -1
15 3 12 8 -3 5 -12 7 -19 4 -8 -3 -16 0 -19 7 -2 7 -4 2 -2 -10z"/>
<path d="M216 2213 c-6 -14 -5 -15 5 -6 7 7 10 15 7 18 -3 3 -9 -2 -12 -12z"/>
<path d="M267 2199 c7 -7 15 -10 18 -7 3 3 -2 9 -12 12 -14 6 -15 5 -6 -5z"/>
<path d="M3529 2194 c9 -19 42 -26 56 -12 3 3 -5 5 -17 4 -13 -1 -29 5 -36 14
-11 13 -12 12 -3 -6z"/>
<path d="M244 2179 c-3 -6 -1 -16 5 -22 9 -9 10 -7 5 7 -6 15 -4 17 6 11 9 -5
11 -4 6 3 -9 15 -13 15 -22 1z"/>
<path d="M3520 2120 c0 -5 5 -10 11 -10 5 0 7 5 4 10 -3 6 -8 10 -11 10 -2 0
-4 -4 -4 -10z"/>
<path d="M3550 2070 c0 -5 5 -10 11 -10 5 0 7 5 4 10 -3 6 -8 10 -11 10 -2 0
-4 -4 -4 -10z"/>
<path d="M233 2045 c0 -8 4 -12 9 -9 4 3 8 9 8 15 0 5 -4 9 -8 9 -5 0 -9 -7
-9 -15z"/>
<path d="M3566 2042 c-3 -5 1 -9 9 -9 8 0 12 4 9 9 -3 4 -7 8 -9 8 -2 0 -6 -4
-9 -8z"/>
<path d="M3535 1988 c-10 -18 -20 -27 -23 -20 -2 7 -9 12 -15 12 -17 0 9 -23
30 -26 20 -3 43 13 43 30 0 6 -5 3 -11 -6 -5 -10 -14 -18 -20 -18 -5 0 -2 11
7 25 9 14 15 28 12 30 -2 2 -13 -10 -23 -27z"/>
<path d="M220 1978 c-12 -8 -12 -9 3 -4 12 4 17 0 17 -15 0 -13 -4 -18 -12
-13 -7 4 -8 3 -4 -5 10 -16 26 -4 26 19 0 24 -12 31 -30 18z"/>
<path d="M3615 1969 c-4 -6 -5 -12 -2 -15 2 -3 7 2 10 11 7 17 1 20 -8 4z"/>
<path d="M272 1957 c-6 -6 -12 -19 -14 -27 -2 -8 -12 -21 -23 -28 l-20 -13 20
7 c11 3 26 7 32 7 7 0 21 9 30 20 11 13 12 17 4 12 -11 -6 -13 -4 -8 8 8 21
-7 31 -21 14z m12 -19 c-3 -31 -3 -30 -14 -23 -7 4 -7 13 0 26 14 25 17 24 14
-3z"/>
<path d="M176 1847 c3 -10 9 -15 12 -12 3 3 0 11 -7 18 -10 9 -11 8 -5 -6z"/>
<path d="M3571 1844 c0 -11 3 -14 6 -6 3 7 2 16 -1 19 -3 4 -6 -2 -5 -13z"/>
<path d="M3593 1843 c4 -3 1 -13 -6 -22 -11 -14 -10 -14 5 -2 16 12 16 31 1
31 -4 0 -3 -3 0 -7z"/>
<path d="M220 1819 c-13 -9 -12 -10 3 -5 11 3 17 0 17 -9 0 -8 5 -15 10 -15 7
0 7 6 0 20 -12 23 -11 23 -30 9z"/>
<path d="M3534 1805 c-5 -12 -10 -13 -20 -4 -8 6 -14 10 -15 8 -10 -47 -8 -55
15 -57 14 -1 28 3 32 9 4 7 0 9 -14 5 -12 -4 -23 -2 -28 5 -4 7 -3 9 4 5 6 -3
13 -2 16 2 3 5 16 8 28 7 13 -1 15 0 6 2 -10 2 -18 8 -18 13 0 5 8 11 18 13
16 4 16 5 -1 6 -10 0 -20 -6 -23 -14z"/>
<path d="M230 1761 c0 -5 5 -13 10 -16 6 -3 10 -2 10 4 0 5 -4 13 -10 16 -5 3
-10 2 -10 -4z"/>
<path d="M3543 1735 c-3 -9 -3 -18 -1 -21 3 -3 8 4 11 16 6 23 -1 27 -10 5z"/>
<path d="M213 1725 c0 -8 4 -15 9 -15 4 0 8 4 8 9 0 6 -4 12 -8 15 -5 3 -9 -1
-9 -9z"/>
<path d="M3541 1697 c2 -1 11 -8 21 -15 12 -10 18 -10 24 -1 4 7 3 9 -4 5 -6
-3 -13 -2 -17 4 -3 5 -11 10 -17 10 -6 0 -9 -1 -7 -3z"/>
<path d="M3537 1606 c-4 -9 -1 -15 6 -13 7 1 11 -4 9 -11 -1 -8 2 -11 8 -7 8
5 7 12 -2 23 -7 10 -13 18 -14 20 -1 2 -4 -4 -7 -12z"/>
<path d="M3465 1569 c2 -11 -1 -19 -7 -19 -7 0 -3 -6 7 -14 19 -14 19 -15 2
-34 -14 -15 -15 -21 -4 -30 8 -7 18 -7 27 -2 8 6 11 10 5 10 -5 0 -3 5 5 11
12 8 10 9 -7 4 -20 -5 -21 -4 -10 19 6 13 16 22 22 18 5 -3 4 1 -2 10 -15 18
-7 28 20 28 33 0 12 11 -26 14 -30 3 -35 0 -32 -15z m30 1 c-3 -5 -12 -10 -18
-10 -7 0 -6 4 3 10 19 12 23 12 15 0z"/>
<path d="M3517 1549 c7 -7 15 -10 18 -7 3 3 -2 9 -12 12 -14 6 -15 5 -6 -5z"/>
<path d="M3510 1520 c-9 -6 -10 -10 -3 -10 6 0 15 5 18 10 8 12 4 12 -15 0z"/>
<path d="M3536 1473 c-6 -14 -5 -15 5 -6 7 7 10 15 7 18 -3 3 -9 -2 -12 -12z"/>
<path d="M3505 1400 c-3 -6 1 -7 9 -4 18 7 21 14 7 14 -6 0 -13 -4 -16 -10z"/>
<path d="M3470 1380 c-12 -7 -10 -9 7 -7 12 0 19 5 17 9 -6 10 -6 10 -24 -2z"/>
<path d="M3536 1382 c-3 -5 1 -9 9 -9 8 0 12 4 9 9 -3 4 -7 8 -9 8 -2 0 -6 -4
-9 -8z"/>
<path d="M379 1334 c-10 -13 -10 -17 0 -24 9 -5 10 -10 3 -14 -6 -3 -13 -2
-17 4 -3 5 -12 10 -18 10 -7 0 -4 -5 6 -11 9 -5 17 -16 17 -24 0 -8 5 -17 11
-21 8 -4 9 0 4 15 -5 16 -3 20 9 15 9 -4 13 -15 10 -32 -3 -18 -1 -23 4 -14 8
11 10 11 15 -2 4 -9 -1 -17 -14 -21 -21 -7 -23 -13 -9 -35 9 -13 10 -13 11 0
1 8 1 19 0 24 -1 5 5 6 13 3 8 -3 20 2 28 11 8 10 9 13 1 9 -16 -10 -36 26
-22 40 7 7 2 17 -15 30 -17 14 -22 23 -15 30 7 7 7 13 1 17 -5 3 -16 -1 -23
-10z m40 -48 c9 -11 9 -16 0 -22 -7 -4 -9 -3 -5 4 3 6 -2 15 -11 21 -10 6 -13
11 -7 11 6 0 17 -6 23 -14z"/>
<path d="M3475 1310 c-4 -6 -11 -7 -17 -4 -7 4 -8 2 -4 -5 6 -9 11 -9 22 0 14
11 18 19 10 19 -3 0 -8 -5 -11 -10z"/>
<path d="M295 1300 c3 -5 8 -10 11 -10 2 0 4 5 4 10 0 6 -5 10 -11 10 -5 0 -7
-4 -4 -10z"/>
<path d="M3425 1289 c-4 -5 -4 -13 -1 -16 3 -4 6 0 6 8 0 11 2 11 10 -1 6 -9
10 -10 10 -3 0 17 -17 25 -25 12z"/>
<path d="M326 1278 c3 -5 10 -6 15 -3 13 9 11 12 -6 12 -8 0 -12 -4 -9 -9z"/>
<path d="M3364 1264 c3 -7 -1 -17 -9 -24 -8 -7 -13 -16 -10 -20 3 -5 1 -11 -5
-15 -6 -4 -8 -10 -5 -14 2 -5 -4 -16 -15 -26 -15 -14 -17 -21 -9 -31 6 -8 15
-11 20 -8 5 3 9 -2 9 -10 0 -8 -6 -14 -12 -12 -7 1 -10 1 -6 -1 4 -2 4 -11 1
-19 -3 -8 0 -14 7 -14 6 0 8 -5 4 -12 -4 -7 -3 -8 5 -4 9 6 9 11 1 21 -8 9 -8
15 0 20 5 3 10 15 10 26 0 11 5 17 10 14 6 -3 11 -1 11 4 3 26 4 30 12 37 4 4
7 12 7 18 0 6 -4 5 -9 -3 -6 -9 -11 -10 -15 -3 -4 6 2 16 13 21 14 8 21 8 24
-2 3 -6 6 -7 6 -2 1 6 -11 24 -25 40 -14 17 -23 25 -20 19z m11 -24 c-3 -5 0
-10 7 -10 7 0 2 -7 -10 -16 -16 -11 -20 -19 -13 -27 17 -22 16 -29 -9 -42 -35
-19 -46 -7 -19 21 12 13 19 24 15 24 -5 0 -3 7 4 15 7 8 9 15 5 15 -4 0 -2 7
5 15 14 17 24 20 15 5z"/>
<path d="M3334 1158 l-19 -23 23 19 c21 18 27 26 19 26 -2 0 -12 -10 -23 -22z"/>
<path d="M3456 1253 c-6 -14 -5 -15 5 -6 7 7 10 15 7 18 -3 3 -9 -2 -12 -12z"/>
<path d="M3407 1239 c7 -7 15 -10 18 -7 3 3 -2 9 -12 12 -14 6 -15 5 -6 -5z"/>
<path d="M380 1231 c0 -7 -5 -9 -12 -5 -7 5 -8 3 -3 -5 5 -9 10 -10 18 -2 6 6
8 14 4 18 -4 3 -7 1 -7 -6z"/>
<path d="M3421 1197 c-13 -21 -12 -21 5 -5 10 10 16 20 13 22 -3 3 -11 -5 -18
-17z"/>
<path d="M340 1206 c0 -2 8 -10 18 -17 15 -13 16 -12 3 4 -13 16 -21 21 -21
13z"/>
<path d="M3390 1161 c0 -16 28 -33 35 -21 4 6 1 9 -7 8 -7 -2 -12 3 -10 10 1
6 -2 12 -8 12 -5 0 -10 -4 -10 -9z"/>
<path d="M3375 1119 c-11 -16 -1 -19 13 -3 7 8 8 14 3 14 -5 0 -13 -5 -16 -11z"/>
<path d="M428 1093 c6 -2 18 -2 25 0 6 3 1 5 -13 5 -14 0 -19 -2 -12 -5z"/>
<path d="M3355 1080 c3 -5 8 -10 11 -10 2 0 4 5 4 10 0 6 -5 10 -11 10 -5 0
-7 -4 -4 -10z"/>
<path d="M3349 1043 c-13 -16 -12 -17 4 -4 16 13 21 21 13 21 -2 0 -10 -8 -17
-17z"/>
<path d="M435 1031 c-3 -5 -2 -12 3 -15 5 -3 9 1 9 9 0 17 -3 19 -12 6z"/>
<path d="M3312 996 c1 -14 5 -23 9 -20 7 4 0 44 -7 44 -2 0 -3 -11 -2 -24z"/>
<path d="M3291 994 c0 -11 3 -14 6 -6 3 7 2 16 -1 19 -3 4 -6 -2 -5 -13z"/>
<path d="M455 981 c3 -3 17 -6 31 -7 13 0 22 2 19 5 -3 3 -17 6 -31 7 -13 0
-22 -2 -19 -5z"/>
<path d="M516 965 c-3 -8 -1 -15 4 -15 6 0 10 7 10 15 0 8 -2 15 -4 15 -2 0
-6 -7 -10 -15z"/>
<path d="M3270 941 c0 -6 4 -12 8 -15 5 -3 9 1 9 9 0 8 -4 15 -9 15 -4 0 -8
-4 -8 -9z"/>
<path d="M601 930 c-7 -4 -12 -10 -12 -14 3 -18 0 -20 -10 -6 -7 10 -9 11 -7
2 2 -8 6 -12 8 -11 3 1 15 -3 28 -10 15 -8 20 -16 15 -24 -6 -8 0 -20 15 -36
16 -14 23 -17 19 -8 -3 9 -2 19 3 22 6 4 10 2 10 -3 0 -5 7 -9 16 -9 15 0 14
2 -1 13 -12 9 -22 10 -30 4 -7 -5 -15 -7 -18 -3 -9 9 -9 23 1 22 18 -3 32 2
32 12 0 5 -4 8 -9 5 -5 -3 -14 0 -20 8 -8 10 -8 15 -1 18 5 1 2 8 -8 15 -10 6
-24 8 -31 3z m23 -9 c3 -5 -1 -11 -9 -14 -9 -4 -12 -1 -8 9 6 16 10 17 17 5z
m17 -38 c13 -16 12 -17 -3 -4 -10 7 -18 15 -18 17 0 8 8 3 21 -13z"/>
<path d="M3241 926 c-9 -11 -9 -16 1 -22 7 -4 10 -4 6 1 -4 4 -3 14 3 22 6 7
9 13 6 13 -2 0 -10 -6 -16 -14z"/>
<path d="M3275 900 c-3 -5 -1 -10 4 -10 6 0 11 5 11 10 0 6 -2 10 -4 10 -3 0
-8 -4 -11 -10z"/>
<path d="M475 891 c-3 -5 -2 -12 3 -15 5 -3 9 1 9 9 0 17 -3 19 -12 6z"/>
<path d="M546 878 c3 -5 10 -6 15 -3 13 9 11 12 -6 12 -8 0 -12 -4 -9 -9z"/>
<path d="M576 871 c-4 -5 3 -7 14 -4 23 6 26 13 6 13 -8 0 -17 -4 -20 -9z"/>
<path d="M3190 851 c0 -6 3 -11 8 -12 4 0 15 -2 25 -4 11 -2 16 0 12 3 -4 4
-10 7 -13 7 -4 0 -13 4 -19 8 -8 5 -13 4 -13 -2z"/>
<path d="M573 831 c0 -11 5 -18 9 -15 4 3 5 11 1 19 -7 21 -12 19 -10 -4z"/>
<path d="M3176 802 c-3 -5 1 -9 9 -9 8 0 12 4 9 9 -3 4 -7 8 -9 8 -2 0 -6 -4
-9 -8z"/>
<path d="M3216 798 c3 -5 10 -6 15 -3 13 9 11 12 -6 12 -8 0 -12 -4 -9 -9z"/>
<path d="M3150 760 c0 -5 5 -10 10 -10 6 0 10 5 10 10 0 6 -4 10 -10 10 -5 0
-10 -4 -10 -10z"/>
<path d="M697 733 c6 -16 5 -17 -13 -3 -19 14 -19 14 0 -8 11 -12 20 -22 20
-22 7 0 3 41 -5 45 -5 4 -6 -2 -2 -12z"/>
<path d="M779 732 c-1 -4 -1 -10 0 -14 0 -5 -6 -8 -14 -8 -8 0 -15 -4 -15 -10
0 -5 7 -6 17 -3 12 5 14 3 8 -8 -5 -8 1 -5 13 5 21 18 32 10 12 -10 -6 -6 -6
-15 0 -24 7 -10 10 -11 10 -2 0 6 -1 13 -2 15 -1 1 4 13 11 26 8 14 9 21 2 17
-6 -4 -11 -3 -11 2 0 12 -29 25 -31 14z m16 -11 c3 -5 2 -12 -3 -15 -5 -3 -9
1 -9 9 0 17 3 19 12 6z"/>
<path d="M735 719 c-11 -16 -1 -19 13 -3 7 8 8 14 3 14 -5 0 -13 -5 -16 -11z"/>
<path d="M777 653 c6 -16 5 -17 -13 -3 -19 14 -19 14 0 -8 11 -12 20 -22 20
-22 7 0 3 41 -5 45 -5 4 -6 -2 -2 -12z"/>
<path d="M879 637 c-13 -12 -23 -21 -20 -20 2 2 10 -5 17 -15 9 -11 13 -13 14
-4 0 7 5 10 10 7 8 -5 7 -11 -1 -21 -8 -10 -8 -14 0 -14 6 0 11 5 11 10 0 6 5
10 11 10 6 0 8 -9 4 -22 -5 -18 -4 -20 4 -8 7 10 11 11 11 3 0 -7 5 -13 11
-13 7 0 18 -8 25 -17 12 -16 13 -16 8 -1 -4 12 -1 16 13 13 10 -2 18 -4 18 -5
0 -1 8 -3 17 -5 14 -3 15 0 5 16 -7 11 -17 17 -24 15 -6 -3 -19 4 -28 14 -10
11 -22 17 -26 14 -5 -3 -9 -2 -9 3 -1 4 -11 20 -23 35 l-22 27 -26 -22z m29 6
c-4 -10 44 -59 53 -56 4 1 14 -6 24 -17 16 -17 16 -18 -2 -15 -10 2 -21 4 -26
4 -4 1 -12 12 -19 26 -6 13 -14 22 -19 19 -4 -2 -12 4 -18 13 -6 11 -11 13
-11 5 0 -7 -5 -10 -11 -7 -6 5 -4 12 8 21 21 16 24 17 21 7z"/>
<path d="M2953 612 c-8 -14 -8 -19 1 -19 7 0 13 9 13 19 1 10 1 18 0 18 -1 0
-7 -8 -14 -18z"/>
<path d="M2910 580 c0 -5 5 -10 10 -10 6 0 10 5 10 10 0 6 -4 10 -10 10 -5 0
-10 -4 -10 -10z"/>
<path d="M836 558 c3 -5 10 -6 15 -3 13 9 11 12 -6 12 -8 0 -12 -4 -9 -9z"/>
<path d="M870 561 c0 -6 4 -13 10 -16 6 -3 7 1 4 9 -7 18 -14 21 -14 7z"/>
<path d="M936 525 c4 -9 9 -13 12 -11 3 3 10 -2 17 -11 9 -13 14 -13 20 -3 5
9 4 11 -3 6 -7 -4 -12 -3 -12 3 0 6 -9 15 -20 21 -16 9 -18 8 -14 -5z"/>
<path d="M1070 520 c6 -11 13 -20 16 -20 2 0 0 9 -6 20 -6 11 -13 20 -16 20
-2 0 0 -9 6 -20z"/>
<path d="M2830 520 c0 -5 5 -10 10 -10 6 0 10 5 10 10 0 6 -4 10 -10 10 -5 0
-10 -4 -10 -10z"/>
<path d="M2886 502 c-3 -5 1 -9 9 -9 8 0 12 4 9 9 -3 4 -7 8 -9 8 -2 0 -6 -4
-9 -8z"/>
<path d="M993 475 c0 -8 4 -12 9 -9 5 3 6 10 3 15 -9 13 -12 11 -12 -6z"/>
<path d="M1073 450 c1 -11 5 -20 9 -20 11 0 10 28 -1 35 -6 3 -9 -4 -8 -15z"/>
<path d="M2710 458 c0 -6 6 -8 14 -5 8 3 17 2 20 -4 2 -5 3 -4 2 2 -3 15 -36
21 -36 7z"/>
<path d="M1020 420 c18 -12 30 -13 30 -2 0 4 -10 9 -22 9 -18 2 -20 0 -8 -7z"/>
<path d="M1099 428 c-8 -27 -5 -36 9 -30 10 4 12 7 4 10 -7 2 -10 8 -6 13 3 5
3 9 0 9 -3 0 -6 -1 -7 -2z"/>
<path d="M2624 415 c-3 -8 -4 -20 -2 -27 3 -7 7 -1 10 15 6 29 1 36 -8 12z"/>
<path d="M2455 400 c-2 -4 9 -18 26 -33 16 -14 29 -20 28 -14 -3 23 1 37 11
37 5 0 7 -8 4 -17 -5 -14 -4 -15 4 -4 6 8 8 19 6 25 -5 12 -73 16 -79 6z m47
-19 c-4 -10 -7 -11 -10 -3 -2 7 -8 10 -12 7 -5 -3 -11 -2 -14 3 -2 4 6 8 19 8
16 0 21 -4 17 -15z"/>
<path d="M2653 365 c0 -8 4 -12 9 -9 5 3 6 10 3 15 -9 13 -12 11 -12 -6z"/>
<path d="M1206 358 c3 -4 9 -8 15 -8 5 0 9 4 9 8 0 5 -7 9 -15 9 -8 0 -12 -4
-9 -9z"/>
<path d="M2595 359 c-3 -4 2 -6 10 -5 21 3 28 13 10 13 -9 0 -18 -4 -20 -8z"/>
<path d="M1116 338 c3 -4 11 -5 19 -1 21 7 19 12 -4 10 -11 0 -18 -5 -15 -9z"/>
<path d="M1236 333 c-6 -14 -5 -15 5 -6 7 7 10 15 7 18 -3 3 -9 -2 -12 -12z"/>
<path d="M1200 320 c-9 -6 -10 -10 -3 -10 6 0 15 5 18 10 8 12 4 12 -15 0z"/>
<path d="M1350 321 c0 -5 7 -15 17 -22 15 -13 15 -12 4 9 -12 23 -21 28 -21
13z"/>
<path d="M2450 320 c0 -5 5 -10 10 -10 6 0 10 5 10 10 0 6 -4 10 -10 10 -5 0
-10 -4 -10 -10z"/>
<path d="M2137 302 c-14 -13 -17 -14 -17 -2 -1 11 -3 10 -11 -3 -9 -15 -5 -22
17 -40 29 -22 58 -32 48 -16 -3 5 -9 7 -14 4 -4 -3 -13 2 -19 9 -8 10 -9 16
-1 21 5 3 10 2 10 -4 0 -13 53 -7 58 8 2 6 8 9 13 6 5 -4 6 2 2 11 -4 11 -8
13 -11 6 -2 -7 -8 -12 -13 -12 -6 0 -7 6 -4 13 4 6 -2 2 -13 -10 -20 -23 -40
-20 -21 3 16 19 -6 25 -24 6z m23 5 c0 -2 -9 -12 -19 -21 -14 -13 -21 -14 -27
-5 -4 7 -3 10 3 6 6 -4 16 0 23 8 12 14 20 19 20 12z"/>
<path d="M1310 298 c0 -4 4 -8 9 -8 6 0 12 4 15 8 3 5 -1 9 -9 9 -8 0 -15 -4
-15 -9z"/>
<path d="M2390 300 c0 -5 5 -10 10 -10 6 0 10 5 10 10 0 6 -4 10 -10 10 -5 0
-10 -4 -10 -10z"/>
<path d="M2490 299 c0 -5 5 -7 10 -4 6 3 10 8 10 11 0 2 -4 4 -10 4 -5 0 -10
-5 -10 -11z"/>
<path d="M1435 289 c-4 -6 -5 -12 -2 -15 2 -3 7 2 10 11 7 17 1 20 -8 4z"/>
<path d="M1456 285 c-3 -8 -1 -15 4 -15 6 0 10 7 10 15 0 8 -2 15 -4 15 -2 0
-6 -7 -10 -15z"/>
<path d="M2351 284 c0 -11 3 -14 6 -6 3 7 2 16 -1 19 -3 4 -6 -2 -5 -13z"/>
<path d="M2373 265 c0 -8 4 -12 9 -9 5 3 6 10 3 15 -9 13 -12 11 -12 -6z"/>
<path d="M1550 260 c0 -6 7 -10 15 -10 8 0 15 2 15 4 0 2 -7 6 -15 10 -8 3
-15 1 -15 -4z"/>
<path d="M2215 261 c-3 -5 0 -13 6 -17 8 -5 9 -3 4 6 -6 10 -1 12 18 8 15 -3
24 -1 21 3 -7 12 -41 11 -49 0z"/>
<path d="M1410 239 c0 -5 5 -7 10 -4 6 3 10 8 10 11 0 2 -4 4 -10 4 -5 0 -10
-5 -10 -11z"/>
<path d="M1670 243 c8 -3 7 -9 -1 -19 -10 -12 -9 -13 5 -8 18 7 17 26 -2 30
-7 1 -8 0 -2 -3z"/>
<path d="M1635 231 c-3 -5 -2 -12 3 -15 5 -3 9 1 9 9 0 17 -3 19 -12 6z"/>
<path d="M1990 230 c8 -5 20 -10 25 -10 6 0 3 5 -5 10 -8 5 -19 10 -25 10 -5
0 -3 -5 5 -10z"/>
<path d="M2095 230 c-3 -6 1 -7 9 -4 18 7 21 14 7 14 -6 0 -13 -4 -16 -10z"/>
<path d="M1470 226 c0 -2 7 -7 16 -10 8 -3 12 -2 9 4 -6 10 -25 14 -25 6z"/>
<path d="M1535 220 c3 -5 8 -10 11 -10 2 0 4 5 4 10 0 6 -5 10 -11 10 -5 0 -7
-4 -4 -10z"/>
<path d="M1950 220 c0 -5 5 -10 10 -10 6 0 10 5 10 10 0 6 -4 10 -10 10 -5 0
-10 -4 -10 -10z"/>
<path d="M2119 213 c-13 -16 -12 -17 4 -4 16 13 21 21 13 21 -2 0 -10 -8 -17
-17z"/>
<path d="M1835 210 c-4 -6 -11 -7 -17 -4 -7 4 -8 2 -4 -5 6 -9 11 -9 22 0 14
11 18 19 10 19 -3 0 -8 -5 -11 -10z"/>
<path d="M1868 213 c7 -3 16 -2 19 1 4 3 -2 6 -13 5 -11 0 -14 -3 -6 -6z"/>
<path d="M2010 199 c0 -5 5 -7 10 -4 6 3 10 8 10 11 0 2 -4 4 -10 4 -5 0 -10
-5 -10 -11z"/>
<path d="M2076 178 c3 -4 11 -5 19 -1 21 7 19 12 -4 10 -11 0 -18 -5 -15 -9z"/>
<path d="M2036 158 c3 -5 10 -6 15 -3 13 9 11 12 -6 12 -8 0 -12 -4 -9 -9z"/>
</g>
</svg>
